<?xml version="1.0" encoding="UTF-8" standalone="no"?>
<!-- Created with Inkscape (http://www.inkscape.org/) -->

<svg
   width="128"
   height="128"
   viewBox="0 0 128 128"
   version="1.1"
   id="svg5"
   inkscape:version="1.2.1 (9c6d41e410, 2022-07-14, custom)"
   sodipodi:docname="planter_blue.svg"
   xmlns:inkscape="http://www.inkscape.org/namespaces/inkscape"
   xmlns:sodipodi="http://sodipodi.sourceforge.net/DTD/sodipodi-0.dtd"
   xmlns="http://www.w3.org/2000/svg"
   xmlns:svg="http://www.w3.org/2000/svg">
  <sodipodi:namedview
     id="namedview7"
     pagecolor="#505050"
     bordercolor="#eeeeee"
     borderopacity="1"
     inkscape:pageshadow="0"
     inkscape:pageopacity="0"
     inkscape:pagecheckerboard="0"
     inkscape:document-units="px"
     showgrid="false"
     units="px"
     width="1000px"
     scale-x="1"
     inkscape:zoom="3.6233468"
     inkscape:cx="76.17267"
     inkscape:cy="58.509442"
     inkscape:window-width="1904"
     inkscape:window-height="1064"
     inkscape:window-x="1928"
     inkscape:window-y="8"
     inkscape:window-maximized="0"
     inkscape:current-layer="layer1"
     inkscape:showpageshadow="0"
     inkscape:deskcolor="#505050" />
  <defs
     id="defs2" />
  <g
     inkscape:label="Layer 1"
     inkscape:groupmode="layer"
     id="layer1">
    <rect
       style="fill:#9cdb43;fill-opacity:1;stroke:none;stroke-width:24.0001;stroke-linecap:round;stroke-linejoin:round;stroke-dasharray:none;stroke-opacity:1;paint-order:markers stroke fill"
       id="rect22141"
       width="80"
       height="16"
       x="24"
       y="102"
       ry="4" />
    <rect
       style="fill:#8e5252;fill-opacity:1;stroke:none;stroke-width:24.0001;stroke-linecap:round;stroke-linejoin:round;stroke-dasharray:none;stroke-opacity:1;paint-order:markers stroke fill"
       id="rect20358"
       width="96"
       height="24"
       x="16"
       y="104"
       ry="6" />
    <rect
       style="fill:#8e5252;fill-opacity:1;stroke:none;stroke-width:24;stroke-linecap:round;stroke-linejoin:round;stroke-dasharray:none;stroke-opacity:1;paint-order:markers stroke fill"
       id="rect19152"
       width="96"
       height="12"
       x="16"
       y="116" />
    <path
       id="rect20352"
       style="fill:#5b3138;fill-opacity:1;stroke:none;stroke-width:24;stroke-linecap:round;stroke-linejoin:round;stroke-dasharray:none;stroke-opacity:1;paint-order:markers stroke fill"
       d="M 16,113.58789 A 63.210518,20.282297 0 0 0 74.925781,126.55273 63.210518,20.282297 0 0 0 112,122.66992 V 128 H 16 Z" />
    <path
       id="rect20412"
       style="fill:#ba756a;fill-opacity:1;stroke:none;stroke-width:24.0001;stroke-linecap:round;stroke-linejoin:round;stroke-dasharray:none;stroke-opacity:1;paint-order:markers stroke fill"
       d="m 22,104 c -2.254037,0 -4.206695,1.23189 -5.232422,3.06055 A 118.82217,22.448908 0 0 1 33.238281,106.82227 118.82217,22.448908 0 0 1 112,112.46484 V 110 c 0,-3.324 -2.676,-6 -6,-6 z" />
    <g
       id="g23422"
       transform="matrix(0.75,0,0,0.75,9.5882034,26.015181)"
       style="stroke-width:1.33333">
      <path
         id="rect11497"
         style="fill:#9cdb43;fill-opacity:1;stroke:none;stroke-width:21.3333;stroke-linecap:round;stroke-linejoin:round;paint-order:markers stroke fill"
         d="m 33.215728,87.97976 a 4,8 0 0 1 4,8 4,8 0 0 1 -4,8 h 4 a 4,8 0 0 0 4,-8 4,8 0 0 0 -4,-8 z" />
      <ellipse
         style="fill:#249fde;fill-opacity:1;stroke:none;stroke-width:21.3332;stroke-linecap:round;stroke-linejoin:round;paint-order:markers stroke fill"
         id="path4351"
         cx="35.215729"
         cy="87.979759"
         rx="4"
         ry="8" />
      <ellipse
         style="fill:#249fde;fill-opacity:1;stroke:none;stroke-width:21.3332;stroke-linecap:round;stroke-linejoin:round;paint-order:markers stroke fill"
         id="ellipse8112"
         cx="87.979759"
         cy="-35.215729"
         rx="4"
         ry="8"
         transform="rotate(90)" />
      <circle
         style="fill:#285cc4;fill-opacity:1;stroke:none;stroke-width:21.3332;stroke-linecap:round;stroke-linejoin:round;paint-order:markers stroke fill"
         id="ellipse8114"
         cx="87.979759"
         cy="-35.215729"
         transform="rotate(90)"
         r="4" />
      <path
         id="ellipse11020"
         style="fill:#41ade5;fill-opacity:1;stroke:none;stroke-width:21.3332;stroke-linecap:round;stroke-linejoin:round;paint-order:markers stroke fill"
         d="m 35.215728,79.97976 a 4,8 0 0 0 -3.570313,4.429687 8,4 0 0 0 -4.036133,2.34375 l 9.677735,-5.586914 A 4,8 0 0 0 35.215728,79.97976 Z" />
      <path
         id="path11612"
         style="fill:#59c135;fill-opacity:1;stroke:none;stroke-width:21.3333;stroke-linecap:round;stroke-linejoin:round;paint-order:markers stroke fill"
         d="m 40.989165,98.582299 -4.245117,1.137695 a 4,8 0 0 1 -3.52832,4.259766 h 4 a 4,8 0 0 0 3.773437,-5.397461 z" />
    </g>
    <g
       id="g23436"
       transform="matrix(-1,0,0,1,109.21573,0.02024078)"
       style="stroke-width:0.999997">
      <path
         id="path23424"
         style="fill:#9cdb43;fill-opacity:1;stroke:none;stroke-width:16;stroke-linecap:round;stroke-linejoin:round;paint-order:markers stroke fill"
         d="m 33.215728,87.97976 a 4,8 0 0 1 4,8 4,8 0 0 1 -4,8 h 4 a 4,8 0 0 0 4,-8 4,8 0 0 0 -4,-8 z" />
      <ellipse
         style="fill:#249fde;fill-opacity:1;stroke:none;stroke-width:15.9999;stroke-linecap:round;stroke-linejoin:round;paint-order:markers stroke fill"
         id="ellipse23426"
         cx="35.215729"
         cy="87.979759"
         rx="4"
         ry="8" />
      <ellipse
         style="fill:#249fde;fill-opacity:1;stroke:none;stroke-width:15.9999;stroke-linecap:round;stroke-linejoin:round;paint-order:markers stroke fill"
         id="ellipse23428"
         cx="87.979759"
         cy="-35.215729"
         rx="4"
         ry="8"
         transform="rotate(90)" />
      <circle
         style="fill:#285cc4;fill-opacity:1;stroke:none;stroke-width:15.9999;stroke-linecap:round;stroke-linejoin:round;paint-order:markers stroke fill"
         id="circle23430"
         cx="87.979759"
         cy="-35.215729"
         transform="rotate(90)"
         r="4" />
      <path
         id="path23432"
         style="fill:#41ade5;fill-opacity:1;stroke:none;stroke-width:15.9999;stroke-linecap:round;stroke-linejoin:round;paint-order:markers stroke fill"
         d="m 35.215728,79.97976 a 4,8 0 0 0 -3.570313,4.429687 8,4 0 0 0 -4.036133,2.34375 l 9.677735,-5.586914 A 4,8 0 0 0 35.215728,79.97976 Z" />
      <path
         id="path23434"
         style="fill:#59c135;fill-opacity:1;stroke:none;stroke-width:16;stroke-linecap:round;stroke-linejoin:round;paint-order:markers stroke fill"
         d="m 40.989165,98.582299 -4.245117,1.137695 a 4,8 0 0 1 -3.52832,4.259766 h 4 a 4,8 0 0 0 3.773437,-5.397461 z" />
    </g>
    <g
       id="g23450"
       transform="matrix(0.5,0,0,0.5,72.392135,52.01012)"
       style="stroke-width:1.99999">
      <path
         id="path23438"
         style="fill:#9cdb43;fill-opacity:1;stroke:none;stroke-width:32;stroke-linecap:round;stroke-linejoin:round;paint-order:markers stroke fill"
         d="m 33.215728,87.97976 a 4,8 0 0 1 4,8 4,8 0 0 1 -4,8 h 4 a 4,8 0 0 0 4,-8 4,8 0 0 0 -4,-8 z" />
      <ellipse
         style="fill:#249fde;fill-opacity:1;stroke:none;stroke-width:31.9998;stroke-linecap:round;stroke-linejoin:round;paint-order:markers stroke fill"
         id="ellipse23440"
         cx="35.215729"
         cy="87.979759"
         rx="4"
         ry="8" />
      <ellipse
         style="fill:#249fde;fill-opacity:1;stroke:none;stroke-width:31.9998;stroke-linecap:round;stroke-linejoin:round;paint-order:markers stroke fill"
         id="ellipse23442"
         cx="87.979759"
         cy="-35.215729"
         rx="4"
         ry="8"
         transform="rotate(90)" />
      <circle
         style="fill:#285cc4;fill-opacity:1;stroke:none;stroke-width:31.9998;stroke-linecap:round;stroke-linejoin:round;paint-order:markers stroke fill"
         id="circle23444"
         cx="87.979759"
         cy="-35.215729"
         transform="rotate(90)"
         r="4" />
      <path
         id="path23446"
         style="fill:#41ade5;fill-opacity:1;stroke:none;stroke-width:31.9998;stroke-linecap:round;stroke-linejoin:round;paint-order:markers stroke fill"
         d="m 35.215728,79.97976 a 4,8 0 0 0 -3.570313,4.429687 8,4 0 0 0 -4.036133,2.34375 l 9.677735,-5.586914 A 4,8 0 0 0 35.215728,79.97976 Z" />
      <path
         id="path23448"
         style="fill:#59c135;fill-opacity:1;stroke:none;stroke-width:32;stroke-linecap:round;stroke-linejoin:round;paint-order:markers stroke fill"
         d="m 40.989165,98.582299 -4.245117,1.137695 a 4,8 0 0 1 -3.52832,4.259766 h 4 a 4,8 0 0 0 3.773437,-5.397461 z" />
    </g>
  </g>
</svg>
