<?xml version="1.0" encoding="UTF-8" standalone="no"?>
<!-- Created with Inkscape (http://www.inkscape.org/) -->

<svg
   width="2200"
   height="400"
   viewBox="0 0 2200 400"
   version="1.1"
   id="svg5"
   inkscape:version="1.2.1 (9c6d41e410, 2022-07-14, custom)"
   sodipodi:docname="finish_title.svg"
   xmlns:inkscape="http://www.inkscape.org/namespaces/inkscape"
   xmlns:sodipodi="http://sodipodi.sourceforge.net/DTD/sodipodi-0.dtd"
   xmlns="http://www.w3.org/2000/svg"
   xmlns:svg="http://www.w3.org/2000/svg">
  <sodipodi:namedview
     id="namedview7"
     pagecolor="#505050"
     bordercolor="#eeeeee"
     borderopacity="1"
     inkscape:pageshadow="0"
     inkscape:pageopacity="0"
     inkscape:pagecheckerboard="0"
     inkscape:document-units="px"
     showgrid="false"
     units="px"
     width="1000px"
     scale-x="1"
     inkscape:zoom="0.45291835"
     inkscape:cx="1027.7791"
     inkscape:cy="171.11252"
     inkscape:window-width="1904"
     inkscape:window-height="989"
     inkscape:window-x="8"
     inkscape:window-y="38"
     inkscape:window-maximized="1"
     inkscape:current-layer="layer1"
     inkscape:showpageshadow="0"
     inkscape:deskcolor="#505050" />
  <defs
     id="defs2" />
  <g
     inkscape:label="Layer 1"
     inkscape:groupmode="layer"
     id="layer1">
    <g
       id="g15141"
       transform="translate(171.52094,-504.78072)">
      <g
         aria-label="Congratulations!"
         id="g15075"
         style="font-weight:900;font-size:256px;line-height:1.25;font-family:Outfit;-inkscape-font-specification:'Outfit Heavy';fill:none;fill-opacity:1;stroke:#ffffff;stroke-width:16;stroke-linecap:round;stroke-linejoin:round;stroke-dasharray:none;stroke-opacity:1"
         transform="translate(0,-220)">
        <path
           id="path15073"
           d="m 1905.7598,918.38074 -8.96,-114.944 h 55.04 l -8.96,114.944 z m 18.688,75.52 q -12.032,0 -19.968,-8.192 -7.936,-8.192 -7.936,-19.968 0,-12.032 7.936,-20.224 7.936,-8.192 19.968,-8.192 12.032,0 19.712,8.192 7.936,8.192 7.936,20.224 0,11.776 -7.936,19.968 -7.68,8.192 -19.712,8.192 z m -101.6322,0.768 q -11.776,0 -23.552,-3.072 -11.776,-3.072 -22.016,-8.448 -9.984,-5.376 -16.896,-12.288 l 26.368,-27.136 q 6.144,6.144 14.592,9.728 8.704,3.584 18.176,3.584 4.352,0 6.656,-1.024 2.56,-1.28 2.56,-3.328 0,-3.584 -4.352,-5.376 -4.096,-1.792 -10.752,-3.328 -6.4,-1.536 -13.824,-3.84 -7.168,-2.56 -13.824,-6.656 -6.656,-4.352 -10.752,-11.776 -4.096,-7.68 -4.096,-19.456 0,-12.032 6.656,-21.248 6.912,-9.472 19.2,-14.848 12.544,-5.632 28.928,-5.632 16.64,0 32.256,5.632 15.616,5.632 24.832,16.896 l -26.624,27.136 q -6.4,-7.168 -14.08,-9.472 -7.68,-2.56 -12.8,-2.56 -4.864,0 -6.912,1.536 -1.792,1.28 -1.792,3.328 0,2.816 4.096,4.608 4.096,1.792 10.496,3.328 6.656,1.536 13.824,4.096 7.168,2.56 13.568,7.168 6.656,4.608 10.752,12.288 4.096,7.424 4.096,19.456 0,18.688 -14.848,29.696 -14.848,11.008 -39.936,11.008 z m -121.8561,-3.84 v -70.656 q 0,-7.424 -4.352,-11.264 -4.096,-4.096 -10.496,-4.096 -4.352,0 -7.936,1.792 -3.328,1.792 -5.376,5.376 -1.792,3.328 -1.792,8.192 l -19.456,-8.704 q 0,-15.36 6.656,-26.368 6.912,-11.008 18.688,-16.896 12.032,-5.888 27.136,-5.888 13.568,0 24.064,6.144 10.752,5.888 16.896,16.384 6.144,10.24 6.144,23.808 v 82.176 z m -80.128,0 v -125.952 h 50.176 v 125.952 z m -87.0398,3.072 q -20.736,0 -37.12,-8.448 -16.128,-8.704 -25.6,-23.808 -9.216,-15.104 -9.216,-34.048 0,-18.944 9.216,-33.792 9.216,-14.848 25.344,-23.296 16.384,-8.704 37.12,-8.704 20.736,0 36.864,8.704 16.128,8.448 25.344,23.296 9.472,14.848 9.472,33.792 0,18.944 -9.216,34.048 -9.216,15.104 -25.344,23.808 -16.128,8.448 -36.864,8.448 z m -0.256,-44.032 q 6.4,0 11.008,-2.56 4.864,-2.816 7.424,-7.68 2.56,-5.12 2.56,-11.776 0,-6.656 -2.816,-11.52 -2.56,-5.12 -7.168,-7.68 -4.608,-2.816 -11.008,-2.816 -6.144,0 -11.008,2.816 -4.608,2.816 -7.424,7.936 -2.56,4.864 -2.56,11.52 0,6.4 2.56,11.52 2.816,4.864 7.424,7.68 4.864,2.56 11.008,2.56 z m -137.216,40.96 v -125.952 h 50.176 v 125.952 z m 25.088,-137.728 q -11.008,0 -18.432,-7.424 -7.168,-7.68 -7.168,-18.688 0,-11.008 7.168,-18.432 7.424,-7.68 18.432,-7.68 11.264,0 18.432,7.68 7.168,7.424 7.168,18.432 0,11.008 -7.168,18.688 -7.168,7.424 -18.432,7.424 z m -115.7121,137.728 v -177.664 h 50.176 v 177.664 z m -26.88,-84.992 v -40.96 h 103.936 v 40.96 z m -93.4401,87.552 q -17.664,0 -31.232,-8.448 -13.568,-8.448 -21.248,-23.04 -7.68,-14.848 -7.68,-34.048 0,-19.2 7.68,-34.048 7.68,-14.848 21.248,-23.04 13.568,-8.448 31.232,-8.448 11.008,0 20.224,3.84 9.472,3.584 15.616,10.24 6.4,6.656 8.192,15.36 v 72.192 q -1.792,8.704 -8.192,15.36 -6.144,6.656 -15.616,10.496 -9.216,3.584 -20.224,3.584 z m 11.264,-44.032 q 9.472,0 15.104,-5.888 5.888,-6.144 5.888,-15.616 0,-6.4 -2.56,-11.008 -2.56,-4.864 -7.424,-7.68 -4.608,-2.816 -10.752,-2.816 -6.144,0 -11.008,2.816 -4.608,2.816 -7.424,7.68 -2.816,4.864 -2.816,11.008 0,6.144 2.56,11.008 2.816,4.864 7.68,7.68 4.864,2.816 10.752,2.816 z m 19.456,41.472 v -33.792 l 6.912,-30.72 -6.912,-30.464 v -30.976 h 48.896 v 125.952 z m -157.4402,0 v -187.392 h 50.176 v 187.392 z m -83.71226,3.072 q -18.432,0 -32.768,-7.168 -14.08,-7.168 -22.272,-19.968 -8.192,-12.8 -8.192,-29.184 v -72.704 h 50.176 v 73.216 q 0,3.84 1.536,6.912 1.792,3.072 4.608,4.864 3.072,1.536 6.912,1.536 5.376,0 8.96,-3.584 3.84,-3.84 3.84,-9.728 v -73.216 h 50.17596 v 72.704 q 0,16.64 -8.192,29.44 -7.936,12.544 -22.272,19.712 -14.07996,7.168 -32.51196,7.168 z m -150.78402,-3.072 v -177.664 h 50.176 v 177.664 z m -26.88,-84.992 v -40.96 h 103.936 v 40.96 z m -93.44015,87.552 q -17.664,0 -31.232,-8.448 -13.568,-8.448 -21.248,-23.04 -7.68,-14.848 -7.68,-34.048 0,-19.2 7.68,-34.048 7.68,-14.848 21.248,-23.04 13.568,-8.448 31.232,-8.448 11.008,0 20.224,3.84 9.472,3.584 15.616,10.24 6.4,6.656 8.192,15.36 v 72.192 q -1.792,8.704 -8.192,15.36 -6.144,6.656 -15.616,10.496 -9.216,3.584 -20.224,3.584 z m 11.264,-44.032 q 9.472,0 15.104,-5.888 5.888,-6.144 5.888,-15.616 0,-6.4 -2.56,-11.008 -2.56,-4.864 -7.424,-7.68 -4.608,-2.816 -10.752,-2.816 -6.144,0 -11.008,2.816 -4.608,2.816 -7.424,7.68 -2.816,4.864 -2.816,11.008 0,6.144 2.56,11.008 2.816,4.864 7.68,7.68 4.864,2.816 10.752,2.816 z m 19.456,41.472 v -33.792 l 6.912,-30.72 -6.912,-30.464 v -30.976 h 48.896 v 125.952 z m -193.79229,0 v -125.952 h 50.176 v 125.952 z m 50.176,-68.096 -23.296,-20.736 q 9.728,-20.48 22.528,-29.952 13.056,-9.728 32.512,-9.728 8.704,0 14.848,2.048 6.4,2.048 10.24,5.888 l -28.16,39.936 q -1.792,-2.048 -5.376,-3.328 -3.328,-1.536 -7.936,-1.536 -7.68,0 -11.52,4.608 -3.84,4.352 -3.84,12.8 z M 443.23033,1048.6847 q -21.248,0 -37.632,-7.168 -16.384,-6.912 -25.344,-19.712 l 29.696,-29.43996 q 5.888,6.4 13.056,9.98396 7.168,3.84 17.408,3.84 12.288,0 19.2,-5.888 7.168,-5.88796 7.168,-17.15196 v -33.28 l 8.192,-27.136 -6.912,-26.88 v -30.976 h 48.896 v 116.224 q 0,20.73596 -9.728,35.83996 -9.728,15.104 -26.368,23.296 -16.64,8.448 -37.632,8.448 z m -2.304,-62.97596 q -17.664,0 -31.232,-8.192 -13.568,-8.192 -21.248,-22.272 -7.68,-14.08 -7.68,-31.232 0,-17.408 7.68,-31.232 7.68,-14.08 21.248,-22.272 13.568,-8.192 31.232,-8.192 11.008,0 20.224,3.84 9.472,3.584 15.616,10.24 6.4,6.656 8.192,15.36 v 64.512 q -1.792,8.704 -8.192,15.36 -6.144,6.656 -15.616,10.496 -9.216,3.584 -20.224,3.584 z m 9.216,-42.752 q 6.144,0 10.496,-2.816 4.352,-2.816 6.656,-7.168 2.304,-4.352 2.304,-9.216 0,-4.864 -2.304,-9.216 -2.304,-4.352 -6.656,-7.168 -4.096,-2.816 -10.24,-2.816 -5.888,0 -10.24,2.816 -4.352,2.816 -6.656,7.424 -2.304,4.352 -2.304,8.96 0,4.352 2.304,8.96 2.304,4.352 6.4,7.424 4.352,2.816 10.24,2.816 z m -132.6081,47.872 v -70.656 q 0,-7.424 -4.352,-11.264 -4.096,-4.096 -10.496,-4.096 -4.352,0 -7.936,1.792 -3.328,1.792 -5.376,5.376 -1.792,3.328 -1.792,8.192 l -19.456,-8.704 q 0,-15.36 6.656,-26.368 6.912,-11.008 18.688,-16.896 12.032,-5.888 27.136,-5.888 13.568,0 24.064,6.144 10.752,5.888 16.896,16.384 6.144,10.24 6.144,23.808 v 82.176 z m -80.128,0 v -125.952 h 50.176 v 125.952 z m -87.03983,3.072 q -20.736,0 -37.12,-8.448 -16.128003,-8.704 -25.600003,-23.808 -9.216,-15.104 -9.216,-34.048 0,-18.944 9.216,-33.792 9.216,-14.848 25.344003,-23.296 16.384,-8.704 37.12,-8.704 20.736,0 36.864,8.704 16.128,8.448 25.344,23.296 9.472,14.848 9.472,33.792 0,18.944 -9.216,34.048 -9.216,15.104 -25.344,23.808 -16.128,8.448 -36.864,8.448 z m -0.256,-44.032 q 6.4,0 11.008,-2.56 4.864,-2.816 7.424,-7.68 2.56,-5.12 2.56,-11.776 0,-6.656 -2.816,-11.52 -2.56,-5.12 -7.168,-7.68 -4.608,-2.816 -11.008,-2.816 -6.144,0 -11.008,2.816 -4.608,2.816 -7.424,7.936 -2.56,4.864 -2.56,11.52 0,6.4 2.56,11.52 2.816,4.864 7.424,7.68 4.864,2.56 11.008,2.56 z m -145.9200729,44.032 q -20.9920001,0 -39.1680001,-6.912 -17.92,-7.168 -31.488,-19.968 -13.568,-12.8 -21.248,-29.952 -7.424,-17.408 -7.424,-37.632 0,-20.48 7.424,-37.632 7.68,-17.152 20.992,-29.696 13.568,-12.544 31.488,-19.456 17.92,-7.168 38.9120001,-7.168 21.2479999,0 38.9119999,6.656 17.664,6.656 30.72,18.432 l -34.048,34.304 q -6.144,-6.656 -15.104,-10.496 -8.704,-3.84 -20.4799999,-3.84 -10.24,0 -18.9440001,3.328 -8.448,3.328 -14.592,9.728 -6.144,6.4 -9.728,15.616 -3.328,8.96 -3.328,20.224 0,11.52 3.328,20.736 3.584,8.96 9.728,15.36 6.144,6.4 14.592,9.984 8.7040001,3.328 18.9440001,3.328 11.5199999,0 20.4799999,-3.584 9.216,-3.584 15.872,-10.496 l 34.304,34.304 q -13.568,11.776 -30.464,18.432 -16.896,6.4 -39.6799999,6.4 z"
           style="fill:none;fill-opacity:1;stroke:#ffffff;stroke-width:16;stroke-linecap:round;stroke-linejoin:round;stroke-dasharray:none;stroke-opacity:1" />
      </g>
      <g
         aria-label="Congratulations!"
         id="g15071"
         style="font-weight:900;font-size:256px;line-height:1.25;font-family:Outfit;-inkscape-font-specification:'Outfit Heavy';fill:none;fill-opacity:1;stroke:#000000;stroke-width:8;stroke-dasharray:none;stroke-opacity:1"
         transform="translate(0,-220)">
        <path
           id="path15069"
           d="m 1905.7598,918.38074 -8.96,-114.944 h 55.04 l -8.96,114.944 z m 18.688,75.52 q -12.032,0 -19.968,-8.192 -7.936,-8.192 -7.936,-19.968 0,-12.032 7.936,-20.224 7.936,-8.192 19.968,-8.192 12.032,0 19.712,8.192 7.936,8.192 7.936,20.224 0,11.776 -7.936,19.968 -7.68,8.192 -19.712,8.192 z m -101.6322,0.768 q -11.776,0 -23.552,-3.072 -11.776,-3.072 -22.016,-8.448 -9.984,-5.376 -16.896,-12.288 l 26.368,-27.136 q 6.144,6.144 14.592,9.728 8.704,3.584 18.176,3.584 4.352,0 6.656,-1.024 2.56,-1.28 2.56,-3.328 0,-3.584 -4.352,-5.376 -4.096,-1.792 -10.752,-3.328 -6.4,-1.536 -13.824,-3.84 -7.168,-2.56 -13.824,-6.656 -6.656,-4.352 -10.752,-11.776 -4.096,-7.68 -4.096,-19.456 0,-12.032 6.656,-21.248 6.912,-9.472 19.2,-14.848 12.544,-5.632 28.928,-5.632 16.64,0 32.256,5.632 15.616,5.632 24.832,16.896 l -26.624,27.136 q -6.4,-7.168 -14.08,-9.472 -7.68,-2.56 -12.8,-2.56 -4.864,0 -6.912,1.536 -1.792,1.28 -1.792,3.328 0,2.816 4.096,4.608 4.096,1.792 10.496,3.328 6.656,1.536 13.824,4.096 7.168,2.56 13.568,7.168 6.656,4.608 10.752,12.288 4.096,7.424 4.096,19.456 0,18.688 -14.848,29.696 -14.848,11.008 -39.936,11.008 z m -121.8561,-3.84 v -70.656 q 0,-7.424 -4.352,-11.264 -4.096,-4.096 -10.496,-4.096 -4.352,0 -7.936,1.792 -3.328,1.792 -5.376,5.376 -1.792,3.328 -1.792,8.192 l -19.456,-8.704 q 0,-15.36 6.656,-26.368 6.912,-11.008 18.688,-16.896 12.032,-5.888 27.136,-5.888 13.568,0 24.064,6.144 10.752,5.888 16.896,16.384 6.144,10.24 6.144,23.808 v 82.176 z m -80.128,0 v -125.952 h 50.176 v 125.952 z m -87.0398,3.072 q -20.736,0 -37.12,-8.448 -16.128,-8.704 -25.6,-23.808 -9.216,-15.104 -9.216,-34.048 0,-18.944 9.216,-33.792 9.216,-14.848 25.344,-23.296 16.384,-8.704 37.12,-8.704 20.736,0 36.864,8.704 16.128,8.448 25.344,23.296 9.472,14.848 9.472,33.792 0,18.944 -9.216,34.048 -9.216,15.104 -25.344,23.808 -16.128,8.448 -36.864,8.448 z m -0.256,-44.032 q 6.4,0 11.008,-2.56 4.864,-2.816 7.424,-7.68 2.56,-5.12 2.56,-11.776 0,-6.656 -2.816,-11.52 -2.56,-5.12 -7.168,-7.68 -4.608,-2.816 -11.008,-2.816 -6.144,0 -11.008,2.816 -4.608,2.816 -7.424,7.936 -2.56,4.864 -2.56,11.52 0,6.4 2.56,11.52 2.816,4.864 7.424,7.68 4.864,2.56 11.008,2.56 z m -137.216,40.96 v -125.952 h 50.176 v 125.952 z m 25.088,-137.728 q -11.008,0 -18.432,-7.424 -7.168,-7.68 -7.168,-18.688 0,-11.008 7.168,-18.432 7.424,-7.68 18.432,-7.68 11.264,0 18.432,7.68 7.168,7.424 7.168,18.432 0,11.008 -7.168,18.688 -7.168,7.424 -18.432,7.424 z m -115.7121,137.728 v -177.664 h 50.176 v 177.664 z m -26.88,-84.992 v -40.96 h 103.936 v 40.96 z m -93.4401,87.552 q -17.664,0 -31.232,-8.448 -13.568,-8.448 -21.248,-23.04 -7.68,-14.848 -7.68,-34.048 0,-19.2 7.68,-34.048 7.68,-14.848 21.248,-23.04 13.568,-8.448 31.232,-8.448 11.008,0 20.224,3.84 9.472,3.584 15.616,10.24 6.4,6.656 8.192,15.36 v 72.192 q -1.792,8.704 -8.192,15.36 -6.144,6.656 -15.616,10.496 -9.216,3.584 -20.224,3.584 z m 11.264,-44.032 q 9.472,0 15.104,-5.888 5.888,-6.144 5.888,-15.616 0,-6.4 -2.56,-11.008 -2.56,-4.864 -7.424,-7.68 -4.608,-2.816 -10.752,-2.816 -6.144,0 -11.008,2.816 -4.608,2.816 -7.424,7.68 -2.816,4.864 -2.816,11.008 0,6.144 2.56,11.008 2.816,4.864 7.68,7.68 4.864,2.816 10.752,2.816 z m 19.456,41.472 v -33.792 l 6.912,-30.72 -6.912,-30.464 v -30.976 h 48.896 v 125.952 z m -157.4402,0 v -187.392 h 50.176 v 187.392 z m -83.71226,3.072 q -18.432,0 -32.768,-7.168 -14.08,-7.168 -22.272,-19.968 -8.192,-12.8 -8.192,-29.184 v -72.704 h 50.176 v 73.216 q 0,3.84 1.536,6.912 1.792,3.072 4.608,4.864 3.072,1.536 6.912,1.536 5.376,0 8.96,-3.584 3.84,-3.84 3.84,-9.728 v -73.216 h 50.17596 v 72.704 q 0,16.64 -8.192,29.44 -7.936,12.544 -22.272,19.712 -14.07996,7.168 -32.51196,7.168 z m -150.78402,-3.072 v -177.664 h 50.176 v 177.664 z m -26.88,-84.992 v -40.96 h 103.936 v 40.96 z m -93.44015,87.552 q -17.664,0 -31.232,-8.448 -13.568,-8.448 -21.248,-23.04 -7.68,-14.848 -7.68,-34.048 0,-19.2 7.68,-34.048 7.68,-14.848 21.248,-23.04 13.568,-8.448 31.232,-8.448 11.008,0 20.224,3.84 9.472,3.584 15.616,10.24 6.4,6.656 8.192,15.36 v 72.192 q -1.792,8.704 -8.192,15.36 -6.144,6.656 -15.616,10.496 -9.216,3.584 -20.224,3.584 z m 11.264,-44.032 q 9.472,0 15.104,-5.888 5.888,-6.144 5.888,-15.616 0,-6.4 -2.56,-11.008 -2.56,-4.864 -7.424,-7.68 -4.608,-2.816 -10.752,-2.816 -6.144,0 -11.008,2.816 -4.608,2.816 -7.424,7.68 -2.816,4.864 -2.816,11.008 0,6.144 2.56,11.008 2.816,4.864 7.68,7.68 4.864,2.816 10.752,2.816 z m 19.456,41.472 v -33.792 l 6.912,-30.72 -6.912,-30.464 v -30.976 h 48.896 v 125.952 z m -193.79229,0 v -125.952 h 50.176 v 125.952 z m 50.176,-68.096 -23.296,-20.736 q 9.728,-20.48 22.528,-29.952 13.056,-9.728 32.512,-9.728 8.704,0 14.848,2.048 6.4,2.048 10.24,5.888 l -28.16,39.936 q -1.792,-2.048 -5.376,-3.328 -3.328,-1.536 -7.936,-1.536 -7.68,0 -11.52,4.608 -3.84,4.352 -3.84,12.8 z M 443.23033,1048.6847 q -21.248,0 -37.632,-7.168 -16.384,-6.912 -25.344,-19.712 l 29.696,-29.43996 q 5.888,6.4 13.056,9.98396 7.168,3.84 17.408,3.84 12.288,0 19.2,-5.888 7.168,-5.88796 7.168,-17.15196 v -33.28 l 8.192,-27.136 -6.912,-26.88 v -30.976 h 48.896 v 116.224 q 0,20.73596 -9.728,35.83996 -9.728,15.104 -26.368,23.296 -16.64,8.448 -37.632,8.448 z m -2.304,-62.97596 q -17.664,0 -31.232,-8.192 -13.568,-8.192 -21.248,-22.272 -7.68,-14.08 -7.68,-31.232 0,-17.408 7.68,-31.232 7.68,-14.08 21.248,-22.272 13.568,-8.192 31.232,-8.192 11.008,0 20.224,3.84 9.472,3.584 15.616,10.24 6.4,6.656 8.192,15.36 v 64.512 q -1.792,8.704 -8.192,15.36 -6.144,6.656 -15.616,10.496 -9.216,3.584 -20.224,3.584 z m 9.216,-42.752 q 6.144,0 10.496,-2.816 4.352,-2.816 6.656,-7.168 2.304,-4.352 2.304,-9.216 0,-4.864 -2.304,-9.216 -2.304,-4.352 -6.656,-7.168 -4.096,-2.816 -10.24,-2.816 -5.888,0 -10.24,2.816 -4.352,2.816 -6.656,7.424 -2.304,4.352 -2.304,8.96 0,4.352 2.304,8.96 2.304,4.352 6.4,7.424 4.352,2.816 10.24,2.816 z m -132.6081,47.872 v -70.656 q 0,-7.424 -4.352,-11.264 -4.096,-4.096 -10.496,-4.096 -4.352,0 -7.936,1.792 -3.328,1.792 -5.376,5.376 -1.792,3.328 -1.792,8.192 l -19.456,-8.704 q 0,-15.36 6.656,-26.368 6.912,-11.008 18.688,-16.896 12.032,-5.888 27.136,-5.888 13.568,0 24.064,6.144 10.752,5.888 16.896,16.384 6.144,10.24 6.144,23.808 v 82.176 z m -80.128,0 v -125.952 h 50.176 v 125.952 z m -87.03983,3.072 q -20.736,0 -37.12,-8.448 -16.128003,-8.704 -25.600003,-23.808 -9.216,-15.104 -9.216,-34.048 0,-18.944 9.216,-33.792 9.216,-14.848 25.344003,-23.296 16.384,-8.704 37.12,-8.704 20.736,0 36.864,8.704 16.128,8.448 25.344,23.296 9.472,14.848 9.472,33.792 0,18.944 -9.216,34.048 -9.216,15.104 -25.344,23.808 -16.128,8.448 -36.864,8.448 z m -0.256,-44.032 q 6.4,0 11.008,-2.56 4.864,-2.816 7.424,-7.68 2.56,-5.12 2.56,-11.776 0,-6.656 -2.816,-11.52 -2.56,-5.12 -7.168,-7.68 -4.608,-2.816 -11.008,-2.816 -6.144,0 -11.008,2.816 -4.608,2.816 -7.424,7.936 -2.56,4.864 -2.56,11.52 0,6.4 2.56,11.52 2.816,4.864 7.424,7.68 4.864,2.56 11.008,2.56 z m -145.9200729,44.032 q -20.9920001,0 -39.1680001,-6.912 -17.92,-7.168 -31.488,-19.968 -13.568,-12.8 -21.248,-29.952 -7.424,-17.408 -7.424,-37.632 0,-20.48 7.424,-37.632 7.68,-17.152 20.992,-29.696 13.568,-12.544 31.488,-19.456 17.92,-7.168 38.9120001,-7.168 21.2479999,0 38.9119999,6.656 17.664,6.656 30.72,18.432 l -34.048,34.304 q -6.144,-6.656 -15.104,-10.496 -8.704,-3.84 -20.4799999,-3.84 -10.24,0 -18.9440001,3.328 -8.448,3.328 -14.592,9.728 -6.144,6.4 -9.728,15.616 -3.328,8.96 -3.328,20.224 0,11.52 3.328,20.736 3.584,8.96 9.728,15.36 6.144,6.4 14.592,9.984 8.7040001,3.328 18.9440001,3.328 11.5199999,0 20.4799999,-3.584 9.216,-3.584 15.872,-10.496 l 34.304,34.304 q -13.568,11.776 -30.464,18.432 -16.896,6.4 -39.6799999,6.4 z"
           style="fill:none;fill-opacity:1;stroke:#000000;stroke-width:8;stroke-linecap:round;stroke-linejoin:round;stroke-dasharray:none;stroke-opacity:1" />
      </g>
      <text
         xml:space="preserve"
         style="font-weight:900;font-size:256px;line-height:1.25;font-family:Outfit;-inkscape-font-specification:'Outfit Heavy';fill:#dae0ea;fill-opacity:1"
         x="-101.02567"
         y="770.82874"
         id="text14555"><tspan
           sodipodi:role="line"
           id="tspan14553"
           x="-101.02567"
           y="770.82874"
           style="font-size:256px;fill:#dae0ea;fill-opacity:1">Congratulations!</tspan></text>
      <path
         id="path15065"
         style="font-weight:900;font-size:256px;line-height:1.25;font-family:Outfit;-inkscape-font-specification:'Outfit Heavy';fill:#b3b9d1;fill-opacity:1"
         d="m -78.441406,733.27148 c 3.515643,4.93492 7.499106,9.52599 11.976562,13.75 9.045325,8.53333 19.539674,15.18814 31.486328,19.9668 12.117322,4.608 25.1733164,6.91211 39.1679691,6.91211 15.1893179,0 28.4176519,-2.13373 39.6816409,-6.40039 11.263988,-4.43733 21.417566,-10.58098 30.46289,-18.43164 L 58.537109,733.27148 Z m 161.853515,0 c 1.204139,2.87778 2.590294,5.67858 4.234375,8.37305 6.314661,10.06932 14.847616,18.00593 25.599606,23.80859 10.92266,5.632 23.29711,8.44727 37.1211,8.44727 13.82398,0 26.11129,-2.81527 36.86328,-8.44727 10.75199,-5.80266 19.19975,-13.73927 25.34375,-23.80859 1.64408,-2.69447 3.03023,-5.49527 4.23437,-8.37305 z m 153.994141,0 v 37.55664 h 50.17578 v -37.55664 z m 80.12891,0 v 37.55664 h 50.17578 v -37.55664 z m 70.14648,0 c 0.31753,0.63261 0.4255,1.34909 0.76563,1.97266 5.11999,9.38666 12.20077,16.81211 21.24609,22.27344 9.04532,5.46133 19.45643,8.1914 31.23242,8.1914 7.33866,0 14.08062,-1.19465 20.22461,-3.58398 2.05827,-0.83443 3.81026,-1.929 5.63281,-2.96289 v 3.98633 c 0,7.50932 -2.3893,13.22704 -7.16797,17.15236 -4.60799,3.9253 -11.00918,5.8887 -19.20117,5.8887 -6.82666,0 -12.62954,-1.2799 -17.4082,-3.8399 -4.77866,-2.38929 -9.12936,-5.7177 -13.05469,-9.98437 l -29.69726,29.43947 c 5.97332,8.5333 14.42109,15.1049 25.34375,19.7129 10.92265,4.7786 23.46749,7.1679 37.63281,7.1679 13.99465,0 26.53949,-2.8172 37.63281,-8.4492 11.09332,-5.4613 19.88186,-13.2256 26.36719,-23.2949 6.48533,-10.0693 9.72851,-22.01588 9.72851,-35.83984 v -27.83008 z m 153.08398,0 v 37.55664 h 50.17774 v -37.55664 z m 107.47461,0 c 1.01091,2.89271 1.73292,5.94888 3.11915,8.62891 5.11999,9.72799 12.20272,17.40902 21.24804,23.04102 9.04533,5.63199 19.45644,8.44726 31.23242,8.44726 7.33866,0 14.07867,-1.19465 20.22266,-3.58398 3.99688,-1.62036 7.38807,-3.75448 10.49609,-6.12696 v 7.15039 h 48.89649 v -37.55664 z m 175.91797,0 v 37.55664 h 50.17774 v -37.55664 z m 89.69336,0 c 1.36503,4.78304 3.36067,9.29084 6.05078,13.49414 5.46133,8.53333 12.88678,15.18814 22.27344,19.9668 9.55733,4.77866 20.47959,7.16797 32.76758,7.16797 12.28799,0 23.12509,-2.38931 32.51174,-7.16797 9.5573,-4.77866 16.9808,-11.34828 22.2715,-19.71094 2.7284,-4.26318 4.7753,-8.84786 6.1406,-13.75 z m 144.80464,0 v 37.55664 h 50.1758 v -37.55664 z m 71.1192,0 c 1.0109,2.89271 1.7329,5.94888 3.1191,8.62891 5.12,9.72799 12.2028,17.40902 21.2481,23.04102 9.0453,5.63199 19.4564,8.44726 31.2324,8.44726 7.3387,0 14.0806,-1.19465 20.2246,-3.58398 3.9975,-1.62059 7.3878,-3.75599 10.4961,-6.12891 v 7.15234 h 48.8965 v -37.55664 z m 175.9199,0 v 37.55664 h 50.1758 v -37.55664 z m 90.625,0 v 37.55664 h 50.1758 v -37.55664 z m 70.5156,0 c 1.2042,2.8778 2.5923,5.67857 4.2364,8.37305 6.3146,10.06932 14.8476,18.00593 25.5996,23.80859 10.9226,5.632 23.2951,8.44727 37.1191,8.44727 13.824,0 26.1133,-2.81527 36.8652,-8.44727 10.752,-5.80266 19.1998,-13.73927 25.3438,-23.80859 1.6441,-2.69447 3.0302,-5.49527 4.2344,-8.37305 z m 153.9961,0 v 37.55664 h 50.1758 v -37.55664 z m 80.127,0 v 37.55664 h 50.1758 v -37.55664 z m 76.4844,0 -17.0918,17.58985 c 4.608,4.60799 10.2405,8.70311 16.8964,12.28711 6.8267,3.58399 14.165,6.40122 22.0157,8.44922 7.8506,2.04799 15.702,3.07031 23.5527,3.07031 16.7253,0 30.0369,-3.66915 39.9356,-11.00781 9.8986,-7.33866 14.8476,-17.23666 14.8476,-29.69532 0,-0.25554 -0.062,-0.44093 -0.064,-0.69336 h -49.0332 c -0.2269,1.08175 -0.9202,2.02356 -2.3575,2.74219 -1.536,0.68267 -3.7549,1.02344 -6.6562,1.02344 -6.3147,0 -12.3731,-1.19465 -18.1758,-3.58399 -0.1209,-0.0513 -0.2177,-0.12956 -0.3379,-0.18164 z m 121.9921,0 c -1.7571,3.77246 -2.8925,7.84607 -2.8925,12.46875 0,7.85066 2.6468,14.50743 7.9375,19.96875 5.2906,5.46133 11.9454,8.19141 19.9668,8.19141 8.0213,0 14.5929,-2.73008 19.7129,-8.19141 5.2906,-5.46132 7.9355,-12.11809 7.9355,-19.96875 0,-4.62274 -1.1354,-8.69625 -2.8926,-12.46875 z" />
    </g>
  </g>
</svg>
