<?xml version="1.0" encoding="UTF-8" standalone="no"?>
<!-- Created with Inkscape (http://www.inkscape.org/) -->

<svg
   width="1600"
   height="400"
   viewBox="0 0 1600 400"
   version="1.1"
   id="svg5"
   inkscape:version="1.2.1 (9c6d41e410, 2022-07-14, custom)"
   sodipodi:docname="level_select.svg"
   xmlns:inkscape="http://www.inkscape.org/namespaces/inkscape"
   xmlns:sodipodi="http://sodipodi.sourceforge.net/DTD/sodipodi-0.dtd"
   xmlns="http://www.w3.org/2000/svg"
   xmlns:svg="http://www.w3.org/2000/svg">
  <sodipodi:namedview
     id="namedview7"
     pagecolor="#505050"
     bordercolor="#eeeeee"
     borderopacity="1"
     inkscape:pageshadow="0"
     inkscape:pageopacity="0"
     inkscape:pagecheckerboard="0"
     inkscape:document-units="px"
     showgrid="false"
     units="px"
     width="1000px"
     scale-x="1"
     inkscape:zoom="0.64052328"
     inkscape:cx="802.46888"
     inkscape:cy="147.53562"
     inkscape:window-width="1904"
     inkscape:window-height="989"
     inkscape:window-x="8"
     inkscape:window-y="38"
     inkscape:window-maximized="1"
     inkscape:current-layer="layer1"
     inkscape:showpageshadow="0"
     inkscape:deskcolor="#505050" />
  <defs
     id="defs2" />
  <g
     inkscape:label="Layer 1"
     inkscape:groupmode="layer"
     id="layer1">
    <g
       id="g4817"
       transform="rotate(-2.5,775.90448,-987.18651)">
      <path
         id="path4657"
         style="font-weight:900;font-size:256px;line-height:1.25;font-family:Outfit;-inkscape-font-specification:'Outfit Heavy';fill:#dae0ea;stroke:#ffffff;stroke-width:16;stroke-linecap:round;stroke-linejoin:round;stroke-dasharray:none;stroke-opacity:1"
         d="M 1387.3126,292.16 V 114.496 h 50.176 V 292.16 Z m -26.88,-84.992 v -40.96 h 103.936 v 40.96 z m -53.2479,88.064 q -20.48,0 -36.864,-8.448 -16.384,-8.448 -25.856,-23.296 -9.472,-15.104 -9.472,-34.048 0,-19.2 9.472,-34.048 9.728,-15.104 26.112,-23.552 16.64,-8.704 37.376,-8.704 14.848,0 26.624,4.608 12.032,4.608 22.272,14.08 l -31.488,31.488 q -3.328,-3.072 -7.424,-4.608 -4.096,-1.536 -9.984,-1.536 -6.144,0 -11.264,2.816 -4.864,2.56 -7.936,7.424 -3.072,4.864 -3.072,11.52 0,6.656 3.072,11.776 3.072,4.864 8.192,7.68 5.12,2.816 11.008,2.816 6.656,0 11.008,-2.048 4.352,-2.048 7.68,-5.632 l 31.488,31.488 q -11.008,10.24 -23.04,15.36 -12.032,4.864 -27.904,4.864 z m -141.8242,0 q -22.016,0 -38.656,-8.192 -16.64,-8.448 -26.112,-23.296 -9.216,-15.104 -9.216,-34.56 0,-19.2 8.96,-34.048 9.216,-14.848 25.088,-23.296 15.872,-8.704 35.84,-8.704 19.712,0 34.816,8.192 15.104,7.936 23.552,22.272 8.704,14.336 8.704,32.768 0,3.84 -0.512,8.192 -0.256,4.096 -1.536,9.728 l -113.664,0.768 v -30.72 l 94.976,-0.768 -23.296,13.568 q 0,-10.24 -2.56,-16.64 -2.304,-6.656 -7.168,-9.984 -4.864,-3.328 -12.288,-3.328 -7.68,0 -13.312,3.84 -5.632,3.84 -8.704,11.008 -2.816,7.168 -2.816,17.408 0,10.496 3.072,17.664 3.328,6.912 9.472,10.496 6.144,3.584 15.36,3.584 8.96,0 15.616,-2.816 6.912,-3.072 12.544,-9.472 l 25.088,24.832 q -9.472,10.752 -22.784,16.128 -13.312,5.376 -30.464,5.376 z M 1025.5843,292.16 V 104.768 h 50.176 V 292.16 Z m -78.08025,3.072 q -22.016,0 -38.656,-8.192 -16.64,-8.448 -26.112,-23.296 -9.216,-15.104 -9.216,-34.56 0,-19.2 8.96,-34.048 9.216,-14.848 25.088,-23.296 15.872,-8.704 35.84,-8.704 19.712,0 34.816,8.192 15.104,7.936 23.55205,22.272 8.704,14.336 8.704,32.768 0,3.84 -0.512,8.192 -0.256,4.096 -1.536,9.728 l -113.66405,0.768 v -30.72 l 94.976,-0.768 -23.296,13.568 q 0,-10.24 -2.56,-16.64 -2.304,-6.656 -7.168,-9.984 -4.864,-3.328 -12.288,-3.328 -7.68,0 -13.312,3.84 -5.632,3.84 -8.704,11.008 -2.816,7.168 -2.816,17.408 0,10.496 3.072,17.664 3.328,6.912 9.472,10.496 6.144,3.584 15.36,3.584 8.96,0 15.616,-2.816 6.912,-3.072 12.544,-9.472 l 25.08805,24.832 q -9.47205,10.752 -22.78405,16.128 -13.312,5.376 -30.464,5.376 z m -159.48781,0 q -23.296,0 -40.704,-6.656 -17.152,-6.912 -31.744,-21.76 l 32,-32 q 9.984,9.472 20.992,14.592 11.008,4.864 23.552,4.864 10.496,0 15.872,-3.072 5.376,-3.328 5.376,-8.96 0,-5.632 -4.608,-9.216 -4.608,-3.84 -12.288,-6.656 -7.424,-3.072 -16.64,-6.144 -8.96,-3.072 -17.92,-7.424 -8.96,-4.352 -16.64,-10.496 -7.424,-6.4 -12.032,-15.616 -4.608,-9.472 -4.608,-23.04 0,-17.664 8.448,-30.464 8.448,-12.8 23.808,-19.456 15.36,-6.912 36.096,-6.912 20.48,0 37.888,6.656 17.664,6.4 29.184,18.432 l -32.256,32 q -8.448,-8.192 -16.896,-12.032 -8.448,-4.096 -18.432,-4.096 -7.936,0 -12.8,2.56 -4.608,2.56 -4.608,7.68 0,5.376 4.608,8.96 4.608,3.328 12.032,6.144 7.68,2.816 16.64,5.888 9.216,3.072 18.176,7.424 8.96,4.096 16.384,10.752 7.68,6.4 12.288,16.128 4.608,9.728 4.608,23.552 0,27.904 -19.968,43.264 -19.712,15.104 -55.808,15.104 z M 605.74393,292.16 V 104.768 h 50.176 V 292.16 Z m -78.08021,3.072 q -22.016,0 -38.656,-8.192 -16.64,-8.448 -26.112,-23.296 -9.216,-15.104 -9.216,-34.56 0,-19.2 8.96,-34.048 9.216,-14.848 25.088,-23.296 15.872,-8.704 35.84,-8.704 19.712,0 34.816,8.192 15.104,7.936 23.552,22.272 8.704,14.336 8.704,32.768 0,3.84 -0.512,8.192 -0.256,4.096 -1.536,9.728 l -113.664,0.768 v -30.72 l 94.976,-0.768 -23.296,13.568 q 0,-10.24 -2.56,-16.64 -2.304,-6.656 -7.168,-9.984 -4.864,-3.328 -12.288,-3.328 -7.68,0 -13.312,3.84 -5.632,3.84 -8.704,11.008 -2.816,7.168 -2.816,17.408 0,10.496 3.072,17.664 3.328,6.912 9.472,10.496 6.144,3.584 15.36,3.584 8.96,0 15.616,-2.816 6.912,-3.072 12.544,-9.472 l 25.088,24.832 q -9.472,10.752 -22.784,16.128 -13.312,5.376 -30.464,5.376 z m -170.49587,-3.072 -49.408,-125.952 h 53.248 l 28.928,107.264 h -18.176 l 28.672,-107.264 h 52.992 l -49.408,125.696 z m -112.64036,3.072 q -22.016,0 -38.656,-8.192 -16.64,-8.448 -26.112,-23.296 -9.216,-15.104 -9.216,-34.56 0,-19.2 8.96,-34.048 9.216,-14.848 25.088,-23.296 15.872,-8.704 35.84,-8.704 19.712,0 34.816,8.192 15.104,7.936 23.552,22.272 8.704,14.336 8.704,32.768 0,3.84 -0.512,8.192 -0.256,4.096 -1.536,9.728 l -113.664,0.768 v -30.72 l 94.976,-0.768 -23.296,13.568 q 0,-10.24 -2.56,-16.64 -2.304,-6.656 -7.168,-9.984 -4.864,-3.328 -12.288,-3.328 -7.68,0 -13.312,3.84 -5.632,3.84 -8.704,11.008 -2.816,7.168 -2.816,17.408 0,10.496 3.072,17.664 3.328,6.912 9.472,10.496 6.144,3.584 15.36,3.584 8.96,0 15.616,-2.816 6.912,-3.072 12.544,-9.472 l 25.088,24.832 q -9.472,10.752 -22.784,16.128 -13.312,5.376 -30.464,5.376 z M 35.631359,292.16 V 109.888 h 51.2 V 292.16 Z m 41.728,0 v -43.52 h 85.248001 v 43.52 z" />
      <path
         id="path4642"
         style="font-weight:900;font-size:256px;line-height:1.25;font-family:Outfit;-inkscape-font-specification:'Outfit Heavy';fill:#dae0ea;stroke:#000000;stroke-width:8;stroke-linecap:round;stroke-linejoin:round;stroke-dasharray:none;stroke-opacity:1"
         d="M 1387.3126,292.16 V 114.496 h 50.176 V 292.16 Z m -26.88,-84.992 v -40.96 h 103.936 v 40.96 z m -53.2479,88.064 q -20.48,0 -36.864,-8.448 -16.384,-8.448 -25.856,-23.296 -9.472,-15.104 -9.472,-34.048 0,-19.2 9.472,-34.048 9.728,-15.104 26.112,-23.552 16.64,-8.704 37.376,-8.704 14.848,0 26.624,4.608 12.032,4.608 22.272,14.08 l -31.488,31.488 q -3.328,-3.072 -7.424,-4.608 -4.096,-1.536 -9.984,-1.536 -6.144,0 -11.264,2.816 -4.864,2.56 -7.936,7.424 -3.072,4.864 -3.072,11.52 0,6.656 3.072,11.776 3.072,4.864 8.192,7.68 5.12,2.816 11.008,2.816 6.656,0 11.008,-2.048 4.352,-2.048 7.68,-5.632 l 31.488,31.488 q -11.008,10.24 -23.04,15.36 -12.032,4.864 -27.904,4.864 z m -141.8242,0 q -22.016,0 -38.656,-8.192 -16.64,-8.448 -26.112,-23.296 -9.216,-15.104 -9.216,-34.56 0,-19.2 8.96,-34.048 9.216,-14.848 25.088,-23.296 15.872,-8.704 35.84,-8.704 19.712,0 34.816,8.192 15.104,7.936 23.552,22.272 8.704,14.336 8.704,32.768 0,3.84 -0.512,8.192 -0.256,4.096 -1.536,9.728 l -113.664,0.768 v -30.72 l 94.976,-0.768 -23.296,13.568 q 0,-10.24 -2.56,-16.64 -2.304,-6.656 -7.168,-9.984 -4.864,-3.328 -12.288,-3.328 -7.68,0 -13.312,3.84 -5.632,3.84 -8.704,11.008 -2.816,7.168 -2.816,17.408 0,10.496 3.072,17.664 3.328,6.912 9.472,10.496 6.144,3.584 15.36,3.584 8.96,0 15.616,-2.816 6.912,-3.072 12.544,-9.472 l 25.088,24.832 q -9.472,10.752 -22.784,16.128 -13.312,5.376 -30.464,5.376 z M 1025.5843,292.16 V 104.768 h 50.176 V 292.16 Z m -78.08025,3.072 q -22.016,0 -38.656,-8.192 -16.64,-8.448 -26.112,-23.296 -9.216,-15.104 -9.216,-34.56 0,-19.2 8.96,-34.048 9.216,-14.848 25.088,-23.296 15.872,-8.704 35.84,-8.704 19.712,0 34.816,8.192 15.104,7.936 23.55205,22.272 8.704,14.336 8.704,32.768 0,3.84 -0.512,8.192 -0.256,4.096 -1.536,9.728 l -113.66405,0.768 v -30.72 l 94.976,-0.768 -23.296,13.568 q 0,-10.24 -2.56,-16.64 -2.304,-6.656 -7.168,-9.984 -4.864,-3.328 -12.288,-3.328 -7.68,0 -13.312,3.84 -5.632,3.84 -8.704,11.008 -2.816,7.168 -2.816,17.408 0,10.496 3.072,17.664 3.328,6.912 9.472,10.496 6.144,3.584 15.36,3.584 8.96,0 15.616,-2.816 6.912,-3.072 12.544,-9.472 l 25.08805,24.832 q -9.47205,10.752 -22.78405,16.128 -13.312,5.376 -30.464,5.376 z m -159.48781,0 q -23.296,0 -40.704,-6.656 -17.152,-6.912 -31.744,-21.76 l 32,-32 q 9.984,9.472 20.992,14.592 11.008,4.864 23.552,4.864 10.496,0 15.872,-3.072 5.376,-3.328 5.376,-8.96 0,-5.632 -4.608,-9.216 -4.608,-3.84 -12.288,-6.656 -7.424,-3.072 -16.64,-6.144 -8.96,-3.072 -17.92,-7.424 -8.96,-4.352 -16.64,-10.496 -7.424,-6.4 -12.032,-15.616 -4.608,-9.472 -4.608,-23.04 0,-17.664 8.448,-30.464 8.448,-12.8 23.808,-19.456 15.36,-6.912 36.096,-6.912 20.48,0 37.888,6.656 17.664,6.4 29.184,18.432 l -32.256,32 q -8.448,-8.192 -16.896,-12.032 -8.448,-4.096 -18.432,-4.096 -7.936,0 -12.8,2.56 -4.608,2.56 -4.608,7.68 0,5.376 4.608,8.96 4.608,3.328 12.032,6.144 7.68,2.816 16.64,5.888 9.216,3.072 18.176,7.424 8.96,4.096 16.384,10.752 7.68,6.4 12.288,16.128 4.608,9.728 4.608,23.552 0,27.904 -19.968,43.264 -19.712,15.104 -55.808,15.104 z M 605.74393,292.16 V 104.768 h 50.176 V 292.16 Z m -78.08021,3.072 q -22.016,0 -38.656,-8.192 -16.64,-8.448 -26.112,-23.296 -9.216,-15.104 -9.216,-34.56 0,-19.2 8.96,-34.048 9.216,-14.848 25.088,-23.296 15.872,-8.704 35.84,-8.704 19.712,0 34.816,8.192 15.104,7.936 23.552,22.272 8.704,14.336 8.704,32.768 0,3.84 -0.512,8.192 -0.256,4.096 -1.536,9.728 l -113.664,0.768 v -30.72 l 94.976,-0.768 -23.296,13.568 q 0,-10.24 -2.56,-16.64 -2.304,-6.656 -7.168,-9.984 -4.864,-3.328 -12.288,-3.328 -7.68,0 -13.312,3.84 -5.632,3.84 -8.704,11.008 -2.816,7.168 -2.816,17.408 0,10.496 3.072,17.664 3.328,6.912 9.472,10.496 6.144,3.584 15.36,3.584 8.96,0 15.616,-2.816 6.912,-3.072 12.544,-9.472 l 25.088,24.832 q -9.472,10.752 -22.784,16.128 -13.312,5.376 -30.464,5.376 z m -170.49587,-3.072 -49.408,-125.952 h 53.248 l 28.928,107.264 h -18.176 l 28.672,-107.264 h 52.992 l -49.408,125.696 z m -112.64036,3.072 q -22.016,0 -38.656,-8.192 -16.64,-8.448 -26.112,-23.296 -9.216,-15.104 -9.216,-34.56 0,-19.2 8.96,-34.048 9.216,-14.848 25.088,-23.296 15.872,-8.704 35.84,-8.704 19.712,0 34.816,8.192 15.104,7.936 23.552,22.272 8.704,14.336 8.704,32.768 0,3.84 -0.512,8.192 -0.256,4.096 -1.536,9.728 l -113.664,0.768 v -30.72 l 94.976,-0.768 -23.296,13.568 q 0,-10.24 -2.56,-16.64 -2.304,-6.656 -7.168,-9.984 -4.864,-3.328 -12.288,-3.328 -7.68,0 -13.312,3.84 -5.632,3.84 -8.704,11.008 -2.816,7.168 -2.816,17.408 0,10.496 3.072,17.664 3.328,6.912 9.472,10.496 6.144,3.584 15.36,3.584 8.96,0 15.616,-2.816 6.912,-3.072 12.544,-9.472 l 25.088,24.832 q -9.472,10.752 -22.784,16.128 -13.312,5.376 -30.464,5.376 z M 35.631359,292.16 V 109.888 h 51.2 V 292.16 Z m 41.728,0 v -43.52 h 85.248001 v 43.52 z" />
      <text
         xml:space="preserve"
         style="font-weight:900;font-size:256px;line-height:1.25;font-family:Outfit;-inkscape-font-specification:'Outfit Heavy';fill:#dae0ea;fill-opacity:1"
         x="20.527359"
         y="292.16"
         id="text4181"><tspan
           sodipodi:role="line"
           id="tspan4179"
           x="20.527359"
           y="292.16"
           style="font-size:256px;fill:#dae0ea;fill-opacity:1">Level Select</tspan></text>
      <path
         id="text4661"
         style="font-weight:900;font-size:256px;line-height:1.25;font-family:Outfit;-inkscape-font-specification:'Outfit Heavy';fill:#b3b9d1;fill-opacity:1"
         d="m 35.630859,245.88477 v 46.27539 H 86.832031 162.60742 V 248.64062 H 86.832031 v -2.75585 z m 136.802731,0 c 1.52192,6.38752 3.96008,12.34271 7.32618,17.85937 6.31466,9.89866 15.018,17.66293 26.11132,23.29492 11.09333,5.46133 23.97894,8.19336 38.65625,8.19336 11.43466,0 21.59019,-1.79295 30.46485,-5.37695 8.87466,-3.584 16.46854,-8.95896 22.7832,-16.12695 L 272.6875,248.89648 c -3.75466,4.26667 -7.93693,7.42271 -12.54492,9.47071 -4.43733,1.87733 -9.64191,2.8164 -15.61524,2.8164 -6.14399,0 -11.26338,-1.19465 -15.35937,-3.58398 -4.096,-2.38933 -7.25399,-5.8881 -9.47266,-10.49609 -0.16923,-0.39487 -0.32132,-0.80874 -0.47656,-1.21875 z m 166.58203,0 18.15235,46.27539 46.84765,-0.25586 18.08985,-46.01953 z m 116.55469,0 c 1.52192,6.38752 3.96008,12.34271 7.32617,17.85937 6.31466,9.89866 15.01801,17.66293 26.11133,23.29492 11.09332,5.46133 23.97893,8.19336 38.65625,8.19336 11.43466,0 21.58824,-1.79295 30.46289,-5.37695 8.87466,-3.584 16.4705,-8.95896 22.78516,-16.12695 l -25.08789,-24.83204 c -3.75466,4.26667 -7.93693,7.42271 -12.54492,9.47071 -4.43733,1.87733 -9.64191,2.8164 -15.61524,2.8164 -6.14399,0 -11.26338,-1.19465 -15.35937,-3.58398 -4.096,-2.38933 -7.25399,-5.8881 -9.47266,-10.49609 -0.16923,-0.39487 -0.32132,-0.80874 -0.47656,-1.21875 z m 150.17383,0 v 46.27539 h 50.17578 v -46.27539 z m 130.75586,0 -20.93164,20.93164 c 9.72799,9.89865 20.30948,17.15177 31.74414,21.75976 11.60532,4.43733 25.17247,6.65625 40.70312,6.65625 24.06398,0 42.66728,-5.03419 55.8086,-15.10351 11.07312,-8.51779 17.52439,-19.94009 19.38672,-34.24414 h -50.51953 c -0.81423,2.0955 -2.37369,3.86999 -4.70703,5.31445 -3.584,2.048 -8.87573,3.07226 -15.87305,3.07226 -8.36266,0 -16.21212,-1.62061 -23.55078,-4.86328 -2.22597,-1.03533 -4.41692,-2.22117 -6.58008,-3.52343 z m 138.91016,0 c 1.52192,6.38752 3.96007,12.34271 7.32617,17.85937 6.31466,9.89866 15.018,17.66293 26.11133,23.29492 11.09332,5.46133 23.97893,8.19336 38.65625,8.19336 11.43465,0 21.59018,-1.79295 30.46484,-5.37695 8.87466,-3.584 16.46854,-8.95896 22.78325,-16.12695 l -25.08794,-24.83204 c -3.75466,4.26667 -7.93692,7.42271 -12.54492,9.47071 -4.43733,1.87733 -9.64191,2.8164 -15.61523,2.8164 -6.144,0 -11.26338,-1.19465 -15.35938,-3.58398 -4.09599,-2.38933 -7.25399,-5.8881 -9.47265,-10.49609 -0.16923,-0.39487 -0.32132,-0.80874 -0.47657,-1.21875 z m 150.17384,0 v 46.27539 h 50.1758 v -46.27539 z m 67.6836,0 c 1.5219,6.38747 3.9581,12.34274 7.3242,17.85937 6.3147,9.89866 15.02,17.66293 26.1133,23.29492 11.0933,5.46133 23.9789,8.19336 38.6562,8.19336 11.4347,0 21.5883,-1.79295 30.4629,-5.37695 8.8747,-3.584 16.4705,-8.95896 22.7852,-16.12695 l -25.0899,-24.83204 c -3.7546,4.26667 -7.9349,7.42271 -12.5429,9.47071 -4.4374,1.87733 -9.6419,2.8164 -15.6153,2.8164 -6.144,0 -11.2653,-1.19465 -15.3613,-3.58398 -4.096,-2.38933 -7.252,-5.8881 -9.4707,-10.49609 -0.1692,-0.39487 -0.3213,-0.80874 -0.4766,-1.21875 z m 143.6953,0 c 1.5659,6.24681 4.0611,12.11679 7.5019,17.60351 6.3147,9.89866 14.9329,17.66293 25.8555,23.29492 10.9227,5.632 23.2119,8.44922 36.8652,8.44922 10.5814,0 19.8811,-1.62257 27.9024,-4.86523 8.0213,-3.41333 15.7023,-8.53272 23.041,-15.35938 l -29.123,-29.12304 h -4.8789 c -1.5821,1.29957 -3.3024,2.39053 -5.1661,3.26757 -2.9013,1.36534 -6.5704,2.04688 -11.0078,2.04688 -3.9253,0 -7.5945,-0.93712 -11.0078,-2.81445 -1.3258,-0.72918 -2.5462,-1.56485 -3.666,-2.5 z m 150.3496,0 v 46.27539 h 50.1758 v -46.27539 z" />
    </g>
  </g>
</svg>
