<?xml version="1.0" encoding="UTF-8" standalone="no"?>
<!-- Created with Inkscape (http://www.inkscape.org/) -->

<svg
   width="1250"
   height="400"
   viewBox="0 0 1250 400"
   version="1.1"
   id="svg5"
   inkscape:version="1.2.1 (9c6d41e410, 2022-07-14, custom)"
   sodipodi:docname="logo_2.svg"
   xml:space="preserve"
   xmlns:inkscape="http://www.inkscape.org/namespaces/inkscape"
   xmlns:sodipodi="http://sodipodi.sourceforge.net/DTD/sodipodi-0.dtd"
   xmlns="http://www.w3.org/2000/svg"
   xmlns:svg="http://www.w3.org/2000/svg"><sodipodi:namedview
     id="namedview7"
     pagecolor="#505050"
     bordercolor="#eeeeee"
     borderopacity="1"
     inkscape:pageshadow="0"
     inkscape:pageopacity="0"
     inkscape:pagecheckerboard="0"
     inkscape:document-units="px"
     showgrid="false"
     units="px"
     width="1000px"
     scale-x="1"
     inkscape:zoom="0.70710678"
     inkscape:cx="675.28698"
     inkscape:cy="164.75588"
     inkscape:window-width="1904"
     inkscape:window-height="989"
     inkscape:window-x="8"
     inkscape:window-y="38"
     inkscape:window-maximized="0"
     inkscape:current-layer="layer1"
     inkscape:showpageshadow="0"
     inkscape:deskcolor="#505050" /><defs
     id="defs2"><filter
       style="color-interpolation-filters:sRGB"
       inkscape:label="Drop Shadow"
       id="filter8031"
       x="-0.26666516"
       y="-0.12631579"
       width="1.5333303"
       height="1.2526315"><feFlood
         flood-opacity="1"
         flood-color="rgb(0,0,0)"
         result="flood"
         id="feFlood8021" /><feComposite
         in="flood"
         in2="SourceGraphic"
         operator="in"
         result="composite1"
         id="feComposite8023" /><feGaussianBlur
         in="composite1"
         stdDeviation="16"
         result="blur"
         id="feGaussianBlur8025" /><feOffset
         dx="0"
         dy="0"
         result="offset"
         id="feOffset8027" /><feComposite
         in="SourceGraphic"
         in2="offset"
         operator="over"
         result="composite2"
         id="feComposite8029" /></filter></defs><g
     inkscape:label="Layer 1"
     inkscape:groupmode="layer"
     id="layer1"><g
       id="g3375"
       transform="rotate(-2.5,222.05659,209.88499)"><path
         id="path2412"
         style="font-weight:900;font-size:256px;line-height:1.25;font-family:Outfit;-inkscape-font-specification:'Outfit Heavy';fill:none;stroke:#ffffff;stroke-width:16;stroke-linecap:round;stroke-linejoin:round;stroke-dasharray:none;stroke-opacity:1"
         d="m 1103.3196,306.05858 v -177.664 h 50.176 v 177.664 z m -26.88,-84.992 v -40.96 h 103.936 v 40.96 z m -75.2637,88.064 q -20.73604,0 -37.12004,-8.448 -16.128,-8.704 -25.6,-23.808 -9.216,-15.104 -9.216,-34.048 0,-18.944 9.216,-33.792 9.216,-14.848 25.344,-23.296 16.384,-8.704 37.12004,-8.704 20.736,0 36.864,8.704 16.128,8.448 25.344,23.296 9.472,14.848 9.472,33.792 0,18.944 -9.216,34.048 -9.216,15.104 -25.344,23.808 -16.128,8.448 -36.864,8.448 z m -0.256,-44.032 q 6.4,0 11.008,-2.56 4.864,-2.816 7.424,-7.68 2.56,-5.12 2.56,-11.776 0,-6.656 -2.816,-11.52 -2.56,-5.12 -7.168,-7.68 -4.608,-2.816 -11.008,-2.816 -6.14402,0 -11.00804,2.816 -4.608,2.816 -7.424,7.936 -2.56,4.864 -2.56,11.52 0,6.4 2.56,11.52 2.816,4.864 7.424,7.68 4.86402,2.56 11.00804,2.56 z m -141.82419,43.52 q -11.264,0 -21.248,-4.352 -9.984,-4.352 -16.896,-11.52 -6.912,-7.424 -8.96,-16.128 v -69.632 q 2.048,-8.704 8.96,-15.36 6.912,-6.656 16.896,-10.24 9.984,-3.84 21.248,-3.84 18.688,0 32.512,8.448 14.08,8.192 21.76,23.04 7.936,14.848 7.936,34.048 0,19.2 -7.936,34.048 -7.68,14.592 -21.76,23.04 -13.824,8.448 -32.512,8.448 z m -9.216,-44.032 q 6.144,0 10.752,-2.816 4.864,-2.816 7.424,-7.68 2.816,-4.864 2.816,-11.008 0,-6.144 -2.816,-11.008 -2.56,-4.864 -7.424,-7.68 -4.864,-2.816 -11.008,-2.816 -6.144,0 -11.008,2.816 -4.608,2.816 -7.168,7.68 -2.56,4.608 -2.56,11.008 0,6.4 2.56,11.264 2.816,4.864 7.424,7.68 4.864,2.56 11.008,2.56 z m -68.352,41.472 v -187.392 h 50.176 v 92.416 l -8.192,30.464 6.912,30.72 v 33.792 z m -78.08021,3.072 q -22.016,0 -38.656,-8.192 -16.64,-8.448 -26.112,-23.296 -9.216,-15.104 -9.216,-34.56 0,-19.2 8.96,-34.048 9.216,-14.848 25.088,-23.296 15.872,-8.704 35.84,-8.704 19.712,0 34.816,8.192 15.104,7.936 23.552,22.272 8.704,14.336 8.704,32.768 0,3.84 -0.512,8.192 -0.256,4.096 -1.536,9.728 l -113.664,0.768 v -30.72 l 94.976,-0.768 -23.296,13.568 q 0,-10.24 -2.56,-16.64 -2.304,-6.656 -7.168,-9.984 -4.864,-3.328 -12.288,-3.328 -7.68,0 -13.312,3.84 -5.632,3.84 -8.704,11.008 -2.816,7.168 -2.816,17.408 0,10.496 3.072,17.664 3.328,6.912 9.472,10.496 6.144,3.584 15.36,3.584 8.96,0 15.616,-2.816 6.912,-3.072 12.544,-9.472 l 25.088,24.832 q -9.472,10.752 -22.784,16.128 -13.312,5.376 -30.464,5.376 z m -167.16816,-0.512 q -18.688,0 -32.768,-8.448 -13.824,-8.448 -21.76,-23.04 -7.68,-14.848 -7.68,-34.048 0,-19.2 7.68,-34.048 7.936,-14.848 21.76,-23.04 14.08,-8.448 32.768,-8.448 11.264,0 21.248,3.84 9.984,3.584 16.896,10.24 7.168,6.656 8.96,15.36 v 69.632 q -1.792,8.704 -8.96,16.128 -6.912,7.168 -16.896,11.52 -9.984,4.352 -21.248,4.352 z m 9.216,-44.032 q 6.4,0 11.008,-2.56 4.608,-2.816 7.168,-7.68 2.816,-4.864 2.816,-11.264 0,-6.4 -2.56,-11.008 -2.56,-4.864 -7.424,-7.68 -4.608,-2.816 -10.752,-2.816 -6.144,0 -11.008,2.816 -4.608,2.816 -7.424,7.68 -2.816,4.864 -2.816,11.008 0,6.144 2.56,11.008 2.816,4.864 7.68,7.68 4.864,2.816 10.752,2.816 z m 68.352,41.472 h -48.896 v -33.792 l 6.912,-30.72 -8.192,-30.464 v -92.416 h 50.176 z m -206.08003,0 v -125.952 h 50.176 v 125.952 z m 25.088,-137.728 q -11.008,0 -18.432,-7.424 -7.168,-7.68 -7.168,-18.688 0,-11.008 7.168,-18.432 7.424,-7.68 18.432,-7.68 11.264,0 18.432,7.68 7.168,7.424 7.168,18.432 0,11.008 -7.168,18.688 -7.168,7.424 -18.432,7.424 z m -108.54421,140.8 q -18.432,0 -32.768,-7.168 -14.08,-7.168 -22.272,-19.968 -8.192,-12.8 -8.192,-29.184 v -72.704 h 50.176 v 73.216 q 0,3.84 1.536,6.912 1.792,3.072 4.608,4.864 3.072,1.536 6.912,1.536 5.376,0 8.96,-3.584 3.84,-3.84 3.84,-9.728 v -73.216 h 50.176 v 72.704 q 0,16.64 -8.192,29.44 -7.936,12.544 -22.272,19.712 -14.08,7.168 -32.512,7.168 z m -171.00823,0 q -21.248,0 -39.424,-6.912 -17.920002,-7.168 -31.487997,-19.968 -13.312,-12.8 -20.736,-29.952 -7.424,-17.152 -7.424,-37.376 0,-20.48 7.68,-37.632 7.936,-17.152 21.76,-29.696 14.079995,-12.8 32.511997,-19.712 18.432,-7.168 39.424,-7.168 25.344,0 45.312,8.704 20.224,8.704 32.768,23.552 l -34.56,34.56 q -9.472,-11.008 -19.712,-16.384 -10.24,-5.376 -24.576,-5.376 -13.568,0 -24.576,6.144 -11.008,5.888 -17.664,16.896 -6.4,11.008 -6.4,25.856 0,14.848 5.888,26.112 6.144,11.008 16.896,17.152 10.752,6.144 25.088,6.144 13.824,0 23.296,-5.376 9.472,-5.376 14.336,-15.36 5.12,-9.984 5.12,-23.552 l 35.072,22.272 -84.736,-2.56 v -40.96 h 101.12 v 7.68 q 0,32.768 -12.032,55.808 -11.776,23.04 -33.28,35.072 -21.248,12.032 -49.664,12.032 z" /><path
         id="path2400"
         style="font-weight:900;font-size:256px;line-height:1.25;font-family:Outfit;-inkscape-font-specification:'Outfit Heavy';fill:none;stroke:#000000;stroke-width:8;stroke-linecap:round;stroke-linejoin:round;stroke-dasharray:none;stroke-opacity:1"
         d="m 1103.3196,306.05858 v -177.664 h 50.176 v 177.664 z m -26.88,-84.992 v -40.96 h 103.936 v 40.96 z m -75.2637,88.064 q -20.73604,0 -37.12004,-8.448 -16.128,-8.704 -25.6,-23.808 -9.216,-15.104 -9.216,-34.048 0,-18.944 9.216,-33.792 9.216,-14.848 25.344,-23.296 16.384,-8.704 37.12004,-8.704 20.736,0 36.864,8.704 16.128,8.448 25.344,23.296 9.472,14.848 9.472,33.792 0,18.944 -9.216,34.048 -9.216,15.104 -25.344,23.808 -16.128,8.448 -36.864,8.448 z m -0.256,-44.032 q 6.4,0 11.008,-2.56 4.864,-2.816 7.424,-7.68 2.56,-5.12 2.56,-11.776 0,-6.656 -2.816,-11.52 -2.56,-5.12 -7.168,-7.68 -4.608,-2.816 -11.008,-2.816 -6.14402,0 -11.00804,2.816 -4.608,2.816 -7.424,7.936 -2.56,4.864 -2.56,11.52 0,6.4 2.56,11.52 2.816,4.864 7.424,7.68 4.86402,2.56 11.00804,2.56 z m -141.82419,43.52 q -11.264,0 -21.248,-4.352 -9.984,-4.352 -16.896,-11.52 -6.912,-7.424 -8.96,-16.128 v -69.632 q 2.048,-8.704 8.96,-15.36 6.912,-6.656 16.896,-10.24 9.984,-3.84 21.248,-3.84 18.688,0 32.512,8.448 14.08,8.192 21.76,23.04 7.936,14.848 7.936,34.048 0,19.2 -7.936,34.048 -7.68,14.592 -21.76,23.04 -13.824,8.448 -32.512,8.448 z m -9.216,-44.032 q 6.144,0 10.752,-2.816 4.864,-2.816 7.424,-7.68 2.816,-4.864 2.816,-11.008 0,-6.144 -2.816,-11.008 -2.56,-4.864 -7.424,-7.68 -4.864,-2.816 -11.008,-2.816 -6.144,0 -11.008,2.816 -4.608,2.816 -7.168,7.68 -2.56,4.608 -2.56,11.008 0,6.4 2.56,11.264 2.816,4.864 7.424,7.68 4.864,2.56 11.008,2.56 z m -68.352,41.472 v -187.392 h 50.176 v 92.416 l -8.192,30.464 6.912,30.72 v 33.792 z m -78.08021,3.072 q -22.016,0 -38.656,-8.192 -16.64,-8.448 -26.112,-23.296 -9.216,-15.104 -9.216,-34.56 0,-19.2 8.96,-34.048 9.216,-14.848 25.088,-23.296 15.872,-8.704 35.84,-8.704 19.712,0 34.816,8.192 15.104,7.936 23.552,22.272 8.704,14.336 8.704,32.768 0,3.84 -0.512,8.192 -0.256,4.096 -1.536,9.728 l -113.664,0.768 v -30.72 l 94.976,-0.768 -23.296,13.568 q 0,-10.24 -2.56,-16.64 -2.304,-6.656 -7.168,-9.984 -4.864,-3.328 -12.288,-3.328 -7.68,0 -13.312,3.84 -5.632,3.84 -8.704,11.008 -2.816,7.168 -2.816,17.408 0,10.496 3.072,17.664 3.328,6.912 9.472,10.496 6.144,3.584 15.36,3.584 8.96,0 15.616,-2.816 6.912,-3.072 12.544,-9.472 l 25.088,24.832 q -9.472,10.752 -22.784,16.128 -13.312,5.376 -30.464,5.376 z m -167.16816,-0.512 q -18.688,0 -32.768,-8.448 -13.824,-8.448 -21.76,-23.04 -7.68,-14.848 -7.68,-34.048 0,-19.2 7.68,-34.048 7.936,-14.848 21.76,-23.04 14.08,-8.448 32.768,-8.448 11.264,0 21.248,3.84 9.984,3.584 16.896,10.24 7.168,6.656 8.96,15.36 v 69.632 q -1.792,8.704 -8.96,16.128 -6.912,7.168 -16.896,11.52 -9.984,4.352 -21.248,4.352 z m 9.216,-44.032 q 6.4,0 11.008,-2.56 4.608,-2.816 7.168,-7.68 2.816,-4.864 2.816,-11.264 0,-6.4 -2.56,-11.008 -2.56,-4.864 -7.424,-7.68 -4.608,-2.816 -10.752,-2.816 -6.144,0 -11.008,2.816 -4.608,2.816 -7.424,7.68 -2.816,4.864 -2.816,11.008 0,6.144 2.56,11.008 2.816,4.864 7.68,7.68 4.864,2.816 10.752,2.816 z m 68.352,41.472 h -48.896 v -33.792 l 6.912,-30.72 -8.192,-30.464 v -92.416 h 50.176 z m -206.08003,0 v -125.952 h 50.176 v 125.952 z m 25.088,-137.728 q -11.008,0 -18.432,-7.424 -7.168,-7.68 -7.168,-18.688 0,-11.008 7.168,-18.432 7.424,-7.68 18.432,-7.68 11.264,0 18.432,7.68 7.168,7.424 7.168,18.432 0,11.008 -7.168,18.688 -7.168,7.424 -18.432,7.424 z m -108.54421,140.8 q -18.432,0 -32.768,-7.168 -14.08,-7.168 -22.272,-19.968 -8.192,-12.8 -8.192,-29.184 v -72.704 h 50.176 v 73.216 q 0,3.84 1.536,6.912 1.792,3.072 4.608,4.864 3.072,1.536 6.912,1.536 5.376,0 8.96,-3.584 3.84,-3.84 3.84,-9.728 v -73.216 h 50.176 v 72.704 q 0,16.64 -8.192,29.44 -7.936,12.544 -22.272,19.712 -14.08,7.168 -32.512,7.168 z m -171.00823,0 q -21.248,0 -39.424,-6.912 -17.920002,-7.168 -31.487997,-19.968 -13.312,-12.8 -20.736,-29.952 -7.424,-17.152 -7.424,-37.376 0,-20.48 7.68,-37.632 7.936,-17.152 21.76,-29.696 14.079995,-12.8 32.511997,-19.712 18.432,-7.168 39.424,-7.168 25.344,0 45.312,8.704 20.224,8.704 32.768,23.552 l -34.56,34.56 q -9.472,-11.008 -19.712,-16.384 -10.24,-5.376 -24.576,-5.376 -13.568,0 -24.576,6.144 -11.008,5.888 -17.664,16.896 -6.4,11.008 -6.4,25.856 0,14.848 5.888,26.112 6.144,11.008 16.896,17.152 10.752,6.144 25.088,6.144 13.824,0 23.296,-5.376 9.472,-5.376 14.336,-15.36 5.12,-9.984 5.12,-23.552 l 35.072,22.272 -84.736,-2.56 v -40.96 h 101.12 v 7.68 q 0,32.768 -12.032,55.808 -11.776,23.04 -33.28,35.072 -21.248,12.032 -49.664,12.032 z" /><text
         xml:space="preserve"
         style="font-weight:900;font-size:256px;line-height:1.25;font-family:Outfit;-inkscape-font-specification:'Outfit Heavy';fill:#dae0ea;fill-opacity:1"
         x="48.342873"
         y="306.05856"
         id="text1080"><tspan
           sodipodi:role="line"
           id="tspan1078"
           x="48.342873"
           y="306.05856"
           style="font-size:256px;fill:#dae0ea;fill-opacity:1">Guidebot</tspan></text><path
         id="text3142"
         style="font-weight:900;font-size:256px;line-height:1.25;font-family:Outfit;-inkscape-font-specification:'Outfit Heavy';fill:#b3b9d1;fill-opacity:1"
         d="m 65.105553,259.32149 c 4.557334,8.53321 10.286927,16.20062 17.285156,22.92969 9.045325,8.53332 19.541631,15.18813 31.488281,19.96679 12.11732,4.608 25.25851,6.91211 39.42383,6.91211 18.94398,0 35.49874,-4.00992 49.66406,-12.03125 14.33599,-8.02132 25.42864,-19.71228 33.2793,-35.07226 0.44721,-0.85636 0.75155,-1.82856 1.17383,-2.70508 H 176.0411 c -6.07594,3.12511 -13.36491,4.7539 -21.9707,4.7539 -8.32065,0 -15.6798,-1.64933 -22.18945,-4.7539 z m 196.392577,0 c 0.88777,8.30287 3.42781,15.88377 7.77344,22.67383 5.46133,8.53332 12.88483,15.18813 22.27149,19.96679 9.55732,4.77867 20.47959,7.16797 32.76757,7.16797 12.28799,0 23.12506,-2.3893 32.51172,-7.16797 9.55733,-4.77866 16.98278,-11.34828 22.27344,-19.71093 4.36101,-6.81409 6.90067,-14.48324 7.7793,-22.92969 h -51.13672 c -0.62688,1.34733 -1.37006,2.63177 -2.4668,3.72851 -2.38933,2.38933 -5.37694,3.58399 -8.96094,3.58399 -2.55999,0 -4.86411,-0.51116 -6.91211,-1.53516 -1.87733,-1.19466 -3.41275,-2.81528 -4.60742,-4.86328 -0.1433,-0.28659 -0.19902,-0.61744 -0.32226,-0.91406 z m 146.26953,0 v 46.73633 h 50.17579 v -46.73633 z m 67.91797,0 c 1.26545,6.36527 3.23347,12.33157 6.06641,17.80859 5.29066,9.72799 12.54377,17.40902 21.75976,23.04102 9.38666,5.63199 20.30893,8.44726 32.76758,8.44726 7.50933,0 14.59206,-1.45023 21.24805,-4.35156 2.68049,-1.16842 5.07549,-2.59938 7.42383,-4.07226 v 5.86328 h 48.89648 v -46.73633 h -54.01562 c -1.02284,0.98825 -2.07987,1.94225 -3.32813,2.70508 -3.07199,1.70666 -6.74115,2.56054 -11.00781,2.56054 -3.92533,0 -7.50929,-0.93907 -10.75195,-2.8164 -1.193,-0.69069 -2.19493,-1.57373 -3.20313,-2.44922 z m 155.66993,0 c 1.51408,6.54488 3.88533,12.68436 7.32421,18.32031 6.31466,9.89866 15.01801,17.66488 26.11133,23.29688 11.09332,5.46132 23.97893,8.1914 38.65625,8.1914 11.43466,0 21.59019,-1.791 30.46485,-5.375 8.87465,-3.58399 16.46854,-8.96091 22.7832,-16.1289 l -25.08789,-24.83204 c -3.75466,4.26667 -7.93693,7.42466 -12.54492,9.47266 -4.43733,1.87733 -9.64191,2.81641 -15.61524,2.81641 -6.14399,0 -11.26338,-1.19466 -15.35937,-3.58399 -4.096,-2.38933 -7.25399,-5.8881 -9.47266,-10.49609 -0.21525,-0.50224 -0.29175,-1.15489 -0.48437,-1.68164 z m 150.17187,0 v 46.73633 h 48.89648 v -5.86328 c 2.34834,1.47288 4.74335,2.90384 7.42383,4.07226 6.656,2.90133 13.73872,4.35156 21.24805,4.35156 12.45865,0 23.29573,-2.81527 32.51172,-8.44726 9.38666,-5.632 16.63977,-13.31303 21.75976,-23.04102 2.92737,-5.47701 4.9619,-11.44333 6.26953,-17.80859 h -55.8496 c -0.98518,0.8756 -1.96312,1.75846 -3.15625,2.44922 -3.072,1.87733 -6.65596,2.8164 -10.75196,2.8164 -4.09599,0 -7.76515,-0.85388 -11.00781,-2.56054 -1.24834,-0.76288 -2.32979,-1.71675 -3.38086,-2.70508 z m 149.72266,0 c 1.52489,6.21615 3.8719,12.09003 7.20507,17.55273 6.31466,10.06933 14.84958,18.00594 25.60157,23.8086 10.92265,5.63199 23.29515,8.44726 37.11917,8.44726 13.824,0 26.1113,-2.81527 36.8633,-8.44726 10.752,-5.80266 19.1997,-13.73927 25.3437,-23.8086 3.3332,-5.46268 5.6802,-11.3366 7.2051,-17.55273 h -54.5156 c -1.2085,1.22634 -2.5773,2.30942 -4.1446,3.21679 -3.072,1.70667 -6.7411,2.56055 -11.0078,2.56055 -4.09602,0 -7.76512,-0.85388 -11.0078,-2.56055 -1.48473,-0.90733 -2.81582,-1.99053 -4.02149,-3.21679 z m 172.07031,0 v 46.73633 h 50.1758 v -46.73633 z" /></g></g></svg>
