<?xml version="1.0" encoding="UTF-8" standalone="no"?>
<!-- Created with Inkscape (http://www.inkscape.org/) -->

<svg
   width="128"
   height="128"
   viewBox="0 0 128 128"
   version="1.1"
   id="svg5"
   inkscape:version="1.2.1 (9c6d41e410, 2022-07-14, custom)"
   sodipodi:docname="checkmark.svg"
   xmlns:inkscape="http://www.inkscape.org/namespaces/inkscape"
   xmlns:sodipodi="http://sodipodi.sourceforge.net/DTD/sodipodi-0.dtd"
   xmlns="http://www.w3.org/2000/svg"
   xmlns:svg="http://www.w3.org/2000/svg">
  <sodipodi:namedview
     id="namedview7"
     pagecolor="#505050"
     bordercolor="#eeeeee"
     borderopacity="1"
     inkscape:pageshadow="0"
     inkscape:pageopacity="0"
     inkscape:pagecheckerboard="0"
     inkscape:document-units="px"
     showgrid="false"
     units="px"
     width="1000px"
     scale-x="1"
     inkscape:zoom="3.6233468"
     inkscape:cx="74.378748"
     inkscape:cy="51.747737"
     inkscape:window-width="1904"
     inkscape:window-height="989"
     inkscape:window-x="8"
     inkscape:window-y="38"
     inkscape:window-maximized="1"
     inkscape:current-layer="layer1"
     inkscape:showpageshadow="0"
     inkscape:deskcolor="#505050" />
  <defs
     id="defs2" />
  <g
     inkscape:label="Layer 1"
     inkscape:groupmode="layer"
     id="layer1">
    <g
       id="g2533">
      <path
         id="path2473"
         style="fill:none;fill-opacity:1;stroke:#ffffff;stroke-width:16;stroke-linecap:round;stroke-linejoin:round;paint-order:markers stroke fill;stroke-opacity:1;stroke-dasharray:none"
         d="M -83.380595 54.356072 C -82.313572 53.289048 -81.655641 51.813559 -81.655641 50.178341 L -81.65426 -14.758092 L -52.138077 -14.758092 C -48.867642 -14.758092 -46.234011 -17.391722 -46.234011 -20.662157 L -46.235392 -32.468907 C -46.235392 -35.739342 -48.867642 -38.371591 -52.138077 -38.371591 L -87.556945 -38.371591 L -111.17044 -38.371591 C -114.44088 -38.371591 -117.07451 -35.737961 -117.07451 -32.467526 L -117.07451 -20.662157 L -117.07451 50.178341 C -117.07451 53.448776 -114.44226 56.081026 -111.17183 56.081026 L -87.558326 56.081026 C -85.923108 56.081026 -84.447619 55.423095 -83.380595 54.356072 z "
         transform="rotate(-135)" />
      <path
         id="path2471"
         style="fill:none;fill-opacity:1;stroke:#000000;stroke-width:8;stroke-linecap:round;stroke-linejoin:round;paint-order:markers stroke fill;stroke-opacity:1;stroke-dasharray:none"
         d="M -83.380595 54.356072 C -82.313572 53.289048 -81.655641 51.813559 -81.655641 50.178341 L -81.65426 -14.758092 L -52.138077 -14.758092 C -48.867642 -14.758092 -46.234011 -17.391722 -46.234011 -20.662157 L -46.235392 -32.468907 C -46.235392 -35.739342 -48.867642 -38.371591 -52.138077 -38.371591 L -87.556945 -38.371591 L -111.17044 -38.371591 C -114.44088 -38.371591 -117.07451 -35.737961 -117.07451 -32.467526 L -117.07451 -20.662157 L -117.07451 50.178341 C -117.07451 53.448776 -114.44226 56.081026 -111.17183 56.081026 L -87.558326 56.081026 C -85.923108 56.081026 -84.447619 55.423095 -83.380595 54.356072 z "
         transform="rotate(-135)" />
      <path
         id="rect294"
         style="fill:#59c135;fill-opacity:1;stroke:none;stroke-width:16;stroke-linecap:round;stroke-linejoin:round;paint-order:markers stroke fill"
         d="M -83.380595 54.356072 C -82.313572 53.289048 -81.655641 51.813559 -81.655641 50.178341 L -81.65426 -14.758092 L -52.138077 -14.758092 C -48.867642 -14.758092 -46.234011 -17.391722 -46.234011 -20.662157 L -46.235392 -32.468907 C -46.235392 -35.739342 -48.867642 -38.371591 -52.138077 -38.371591 L -87.556945 -38.371591 L -111.17044 -38.371591 C -114.44088 -38.371591 -117.07451 -35.737961 -117.07451 -32.467526 L -117.07451 -20.662157 L -117.07451 50.178341 C -117.07451 53.448776 -114.44226 56.081026 -111.17183 56.081026 L -87.558326 56.081026 C -85.923108 56.081026 -84.447619 55.423095 -83.380595 54.356072 z "
         transform="rotate(-135)" />
      <path
         id="path2475"
         style="fill:#14a02e;fill-opacity:1;stroke:none;stroke-width:16;stroke-linecap:round;stroke-linejoin:round;paint-order:markers stroke fill"
         d="M 97.953125 67.615234 L 31.230469 85.496094 L 34.779297 89.044922 L 51.476562 105.74219 C 53.78911 108.05474 57.513634 108.05473 59.826172 105.74219 L 68.173828 97.394531 L 97.953125 67.615234 z " />
    </g>
  </g>
</svg>
