<?xml version="1.0" encoding="UTF-8" standalone="no"?>
<!-- Created with Inkscape (http://www.inkscape.org/) -->

<svg
   width="128"
   height="128"
   viewBox="0 0 128 128"
   version="1.1"
   id="svg5"
   inkscape:version="1.2.1 (9c6d41e410, 2022-07-14, custom)"
   sodipodi:docname="blue_lever_right_o2.svg"
   xmlns:inkscape="http://www.inkscape.org/namespaces/inkscape"
   xmlns:sodipodi="http://sodipodi.sourceforge.net/DTD/sodipodi-0.dtd"
   xmlns="http://www.w3.org/2000/svg"
   xmlns:svg="http://www.w3.org/2000/svg">
  <sodipodi:namedview
     id="namedview7"
     pagecolor="#505050"
     bordercolor="#eeeeee"
     borderopacity="1"
     inkscape:pageshadow="0"
     inkscape:pageopacity="0"
     inkscape:pagecheckerboard="0"
     inkscape:document-units="px"
     showgrid="false"
     units="px"
     width="1000px"
     scale-x="1"
     inkscape:zoom="0.90517241"
     inkscape:cx="38.114286"
     inkscape:cy="96.666667"
     inkscape:window-width="948"
     inkscape:window-height="491"
     inkscape:window-x="964"
     inkscape:window-y="536"
     inkscape:window-maximized="0"
     inkscape:current-layer="layer1"
     inkscape:showpageshadow="0"
     inkscape:deskcolor="#505050"
     showguides="false" />
  <defs
     id="defs2" />
  <g
     inkscape:label="Layer 1"
     inkscape:groupmode="layer"
     id="layer1">
    <path
       id="path8384"
       style="fill:none;stroke-width:16;stroke-linecap:round;stroke-linejoin:round;paint-order:markers stroke fill;fill-opacity:1;stroke:#ffffff;stroke-opacity:1;stroke-dasharray:none"
       d="m 99.41016,21.654297 a 12,12 0 0 0 -9.82227,5.986328 12,12 0 0 0 -0.7168,1.474609 12,12 0 0 0 -0.1914,0.56836 12,12 0 0 0 -0.31641,0.988281 12,12 0 0 0 -0.13672,0.681641 12,12 0 0 0 -0.1582,0.943359 12,12 0 0 0 -0.0449,0.693359 12,12 0 0 0 -0.0234,0.955078 12,12 0 0 0 0.0488,0.71875 12,12 0 0 0 0.10742,0.90625 12,12 0 0 0 0.14648,0.736329 12,12 0 0 0 0.23243,0.863281 12,12 0 0 0 0.24023,0.71289 12,12 0 0 0 0.35742,0.833985 12,12 0 0 0 0.32422,0.658203 12,12 0 0 0 0.13086,0.265625 L 66.28711,80 H 32 c -8.86398,0 -16,7.136018 -16,16 v 12 12 8 h 96 V 120 108 96 C 112,87.136018 104.86398,80 96,80 H 80.14453 L 99.98047,45.640625 a 12,12 0 0 0 0.31055,-0.01953 12,12 0 0 0 0.68945,-0.04492 12,12 0 0 0 0.95508,-0.115234 12,12 0 0 0 0.68359,-0.134766 12,12 0 0 0 0.91797,-0.246094 12,12 0 0 0 0.66211,-0.224609 12,12 0 0 0 0.87695,-0.375 12,12 0 0 0 0.63281,-0.314453 12,12 0 0 0 0.8125,-0.494141 12,12 0 0 0 0.57422,-0.382813 12,12 0 0 0 0.7793,-0.644531 12,12 0 0 0 0.47461,-0.414062 12,12 0 0 0 0.75195,-0.828125 12,12 0 0 0 0.35156,-0.400391 12,12 0 0 0 0.91993,-1.361328 12,12 0 0 0 -4.39258,-16.392578 12,12 0 0 0 -6.57031,-1.59375 z" />
    <path
       id="path8018"
       style="fill:none;stroke-width:8;stroke-linecap:round;stroke-linejoin:round;paint-order:markers stroke fill;fill-opacity:1;stroke:#000000;stroke-opacity:1;stroke-dasharray:none"
       d="m 99.41016,21.654297 a 12,12 0 0 0 -9.82227,5.986328 12,12 0 0 0 -0.7168,1.474609 12,12 0 0 0 -0.1914,0.56836 12,12 0 0 0 -0.31641,0.988281 12,12 0 0 0 -0.13672,0.681641 12,12 0 0 0 -0.1582,0.943359 12,12 0 0 0 -0.0449,0.693359 12,12 0 0 0 -0.0234,0.955078 12,12 0 0 0 0.0488,0.71875 12,12 0 0 0 0.10742,0.90625 12,12 0 0 0 0.14648,0.736329 12,12 0 0 0 0.23243,0.863281 12,12 0 0 0 0.24023,0.71289 12,12 0 0 0 0.35742,0.833985 12,12 0 0 0 0.32422,0.658203 12,12 0 0 0 0.13086,0.265625 L 66.28711,80 H 32 c -8.86398,0 -16,7.136018 -16,16 v 12 12 8 h 96 V 120 108 96 C 112,87.136018 104.86398,80 96,80 H 80.14453 L 99.98047,45.640625 a 12,12 0 0 0 0.31055,-0.01953 12,12 0 0 0 0.68945,-0.04492 12,12 0 0 0 0.95508,-0.115234 12,12 0 0 0 0.68359,-0.134766 12,12 0 0 0 0.91797,-0.246094 12,12 0 0 0 0.66211,-0.224609 12,12 0 0 0 0.87695,-0.375 12,12 0 0 0 0.63281,-0.314453 12,12 0 0 0 0.8125,-0.494141 12,12 0 0 0 0.57422,-0.382813 12,12 0 0 0 0.7793,-0.644531 12,12 0 0 0 0.47461,-0.414062 12,12 0 0 0 0.75195,-0.828125 12,12 0 0 0 0.35156,-0.400391 12,12 0 0 0 0.91993,-1.361328 12,12 0 0 0 -4.39258,-16.392578 12,12 0 0 0 -6.57031,-1.59375 z" />
    <g
       id="g3694"
       inkscape:transform-center-y="-35.643652"
       transform="rotate(30,64,95.961591)"
       inkscape:transform-center-x="-21.38272">
      <rect
         style="fill:#4a5462;fill-opacity:1;stroke:none;stroke-width:32;stroke-linecap:round;stroke-linejoin:round;paint-order:markers stroke fill"
         id="rect1964"
         width="12"
         height="64"
         x="58"
         y="31.999998" />
      <circle
         style="fill:#20d6c7;fill-opacity:1;stroke:none;stroke-width:8;stroke-linecap:round;stroke-linejoin:round;paint-order:markers stroke fill"
         id="path3465-6"
         cx="64"
         cy="24"
         r="12" />
      <rect
         style="fill:#434b58;fill-opacity:1;stroke:none;stroke-width:32;stroke-linecap:round;stroke-linejoin:round;paint-order:markers stroke fill"
         id="rect3688"
         width="4"
         height="64"
         x="66"
         y="31.999998" />
      <path
         id="circle6408-2"
         style="fill:#249fde;fill-opacity:1;stroke-width:4.00002;stroke-linecap:round;stroke-linejoin:round;paint-order:markers fill stroke"
         d="m 52,24 a 12,12 0 0 0 11.999999,12 12,12 0 0 0 12,-12 12,8 0 0 1 -12,8 A 12,8 0 0 1 52,24 Z" />
    </g>
    <path
       id="rect474"
       style="fill:#8b93af;stroke:none;stroke-width:32;stroke-linecap:round;stroke-linejoin:round;paint-order:markers stroke fill;fill-opacity:1"
       d="M 32 80 C 23.136009 80 16 87.136009 16 96 L 16 128 L 112 128 L 112 96 C 112 87.136009 104.86399 80 96 80 L 32 80 z " />
    <rect
       style="fill:#6d758d;fill-opacity:1;stroke:none;stroke-width:32;stroke-linecap:round;stroke-linejoin:round;paint-order:markers stroke fill"
       id="rect1085"
       width="96"
       height="8"
       x="16"
       y="120" />
    <path
       id="path2627"
       style="fill:#6d758d;fill-opacity:1;stroke-width:3.99999;stroke-linecap:round;stroke-linejoin:round;paint-order:markers fill stroke"
       d="m 112,120 0,-12 c 0,6.64798 -5.35201,12 -12,12 z m -84,0 c -6.647985,0 -12,-5.35202 -12,-12 v 12 z"
       sodipodi:nodetypes="cccccccc" />
  </g>
</svg>
