<?xml version="1.0" encoding="UTF-8" standalone="no"?>
<!-- Created with Inkscape (http://www.inkscape.org/) -->

<svg
   width="128"
   height="128"
   viewBox="0 0 128 128"
   version="1.1"
   id="svg5"
   inkscape:version="1.2.1 (9c6d41e410, 2022-07-14, custom)"
   sodipodi:docname="blue_lever_left_o2.svg"
   xmlns:inkscape="http://www.inkscape.org/namespaces/inkscape"
   xmlns:sodipodi="http://sodipodi.sourceforge.net/DTD/sodipodi-0.dtd"
   xmlns="http://www.w3.org/2000/svg"
   xmlns:svg="http://www.w3.org/2000/svg">
  <sodipodi:namedview
     id="namedview7"
     pagecolor="#505050"
     bordercolor="#eeeeee"
     borderopacity="1"
     inkscape:pageshadow="0"
     inkscape:pageopacity="0"
     inkscape:pagecheckerboard="0"
     inkscape:document-units="px"
     showgrid="false"
     units="px"
     width="1000px"
     scale-x="1"
     inkscape:zoom="1.8103448"
     inkscape:cx="80.095238"
     inkscape:cy="73.190476"
     inkscape:window-width="948"
     inkscape:window-height="989"
     inkscape:window-x="964"
     inkscape:window-y="38"
     inkscape:window-maximized="0"
     inkscape:current-layer="layer1"
     inkscape:showpageshadow="0"
     inkscape:deskcolor="#505050"
     showguides="false" />
  <defs
     id="defs2" />
  <g
     inkscape:label="Layer 1"
     inkscape:groupmode="layer"
     id="layer1">
    <path
       id="path6693"
       style="fill:none;stroke:#ffffff;stroke-width:16;stroke-linecap:round;stroke-linejoin:round;stroke-dasharray:none;stroke-opacity:1;paint-order:markers stroke fill"
       d="m 28.58984,21.654297 a 12,12 0 0 0 -6.57031,1.593749 12,12 0 0 0 -4.39258,16.392575 12,12 0 0 0 0.91992,1.361332 12,12 0 0 0 0.35157,0.40039 12,12 0 0 0 0.75195,0.828122 12,12 0 0 0 0.47461,0.414071 12,12 0 0 0 0.7793,0.644529 12,12 0 0 0 0.57421,0.38281 12,12 0 0 0 0.81251,0.494139 12,12 0 0 0 0.63281,0.314456 12,12 0 0 0 0.87696,0.375 12,12 0 0 0 0.6621,0.224612 12,12 0 0 0 0.91797,0.246094 12,12 0 0 0 0.68359,0.134758 12,12 0 0 0 0.95508,0.115241 12,12 0 0 0 0.68946,0.04492 12,12 0 0 0 0.31054,0.01954 L 47.85547,80.000003 32,79.999998 c -8.86398,0 -16,7.136024 -16,16.000003 V 108 v 12 8 h 96 V 96.000003 c 0,-8.863978 -7.13602,-16.000005 -16,-16.000006 l -34.28711,5e-6 -23.30274,-40.363286 a 12,12 0 0 0 0.0899,-0.152343 12,12 0 0 0 0.008,-0.01367 12,12 0 0 0 0.24414,-0.462896 12,12 0 0 0 0.0137,-0.02734 12,12 0 0 0 0.084,-0.177734 12,12 0 0 0 0.1582,-0.343753 12,12 0 0 0 0.082,-0.193352 12,12 0 0 0 0.13282,-0.330079 12,12 0 0 0 0.0762,-0.207032 12,12 0 0 0 0.11328,-0.324221 12,12 0 0 0 0.0703,-0.226567 12,12 0 0 0 0.10156,-0.343745 12,12 0 0 0 0.043,-0.15625 12,12 0 0 0 0.10155,-0.427735 12,12 0 0 0 0.0332,-0.142586 12,12 0 0 0 0.0664,-0.345698 12,12 0 0 0 0.0449,-0.267578 12,12 0 0 0 0.0332,-0.226567 12,12 0 0 0 0.043,-0.341796 12,12 0 0 0 0.0195,-0.224609 12,12 0 0 0 0.0274,-0.312499 12,12 0 0 0 0.0137,-0.374996 12,12 0 0 0 0.008,-0.175783 12,12 0 0 0 0,-0.01758 12,12 0 0 0 -0.004,-0.539067 12,12 0 0 0 -0.0117,-0.222652 12,12 0 0 0 -0.0234,-0.386721 12,12 0 0 0 0,-0.01172 12,12 0 0 0 -0.006,-0.05664 12,12 0 0 0 -0.0508,-0.48242 12,12 0 0 0 -0.0273,-0.191401 12,12 0 0 0 -0.0527,-0.339842 12,12 0 0 0 -0.0469,-0.248054 12,12 0 0 0 -0.0742,-0.34961 12,12 0 0 0 -0.0449,-0.187501 12,12 0 0 0 -0.0801,-0.3164 12,12 0 0 0 -0.0762,-0.269535 12,12 0 0 0 -0.0879,-0.279292 12,12 0 0 0 -0.084,-0.251956 12,12 0 0 0 -0.10742,-0.291019 12,12 0 0 0 -0.0879,-0.228518 12,12 0 0 0 -0.16406,-0.38867 12,12 0 0 0 -0.0391,-0.08984 12,12 0 0 0 -0.01,-0.02148 12,12 0 0 0 -0.1836,-0.380857 12,12 0 0 0 -0.0625,-0.128911 12,12 0 0 0 -0.0234,-0.04492 12,12 0 0 0 -0.25781,-0.472659 12,12 0 0 0 -9.82227,-5.986329 z" />
    <path
       id="rect6668"
       style="fill:none;stroke:#000000;stroke-width:8;stroke-linecap:round;stroke-linejoin:round;stroke-dasharray:none;stroke-opacity:1;paint-order:markers stroke fill"
       d="m 28.58984,21.654297 a 12,12 0 0 0 -6.57031,1.593749 12,12 0 0 0 -4.39258,16.392575 12,12 0 0 0 0.91992,1.361332 12,12 0 0 0 0.35157,0.40039 12,12 0 0 0 0.75195,0.828122 12,12 0 0 0 0.47461,0.414071 12,12 0 0 0 0.7793,0.644529 12,12 0 0 0 0.57421,0.38281 12,12 0 0 0 0.81251,0.494139 12,12 0 0 0 0.63281,0.314456 12,12 0 0 0 0.87696,0.375 12,12 0 0 0 0.6621,0.224612 12,12 0 0 0 0.91797,0.246094 12,12 0 0 0 0.68359,0.134758 12,12 0 0 0 0.95508,0.115241 12,12 0 0 0 0.68946,0.04492 12,12 0 0 0 0.31054,0.01954 L 47.85547,80.000003 32,79.999998 c -8.86398,0 -16,7.136024 -16,16.000003 V 108 v 12 8 h 96 V 96.000003 c 0,-8.863978 -7.13602,-16.000005 -16,-16.000006 l -34.28711,5e-6 -23.30274,-40.363286 a 12,12 0 0 0 0.0899,-0.152343 12,12 0 0 0 0.008,-0.01367 12,12 0 0 0 0.24414,-0.462896 12,12 0 0 0 0.0137,-0.02734 12,12 0 0 0 0.084,-0.177734 12,12 0 0 0 0.1582,-0.343753 12,12 0 0 0 0.082,-0.193352 12,12 0 0 0 0.13282,-0.330079 12,12 0 0 0 0.0762,-0.207032 12,12 0 0 0 0.11328,-0.324221 12,12 0 0 0 0.0703,-0.226567 12,12 0 0 0 0.10156,-0.343745 12,12 0 0 0 0.043,-0.15625 12,12 0 0 0 0.10155,-0.427735 12,12 0 0 0 0.0332,-0.142586 12,12 0 0 0 0.0664,-0.345698 12,12 0 0 0 0.0449,-0.267578 12,12 0 0 0 0.0332,-0.226567 12,12 0 0 0 0.043,-0.341796 12,12 0 0 0 0.0195,-0.224609 12,12 0 0 0 0.0274,-0.312499 12,12 0 0 0 0.0137,-0.374996 12,12 0 0 0 0.008,-0.175783 12,12 0 0 0 0,-0.01758 12,12 0 0 0 -0.004,-0.539067 12,12 0 0 0 -0.0117,-0.222652 12,12 0 0 0 -0.0234,-0.386721 12,12 0 0 0 0,-0.01172 12,12 0 0 0 -0.006,-0.05664 12,12 0 0 0 -0.0508,-0.48242 12,12 0 0 0 -0.0273,-0.191401 12,12 0 0 0 -0.0527,-0.339842 12,12 0 0 0 -0.0469,-0.248054 12,12 0 0 0 -0.0742,-0.34961 12,12 0 0 0 -0.0449,-0.187501 12,12 0 0 0 -0.0801,-0.3164 12,12 0 0 0 -0.0762,-0.269535 12,12 0 0 0 -0.0879,-0.279292 12,12 0 0 0 -0.084,-0.251956 12,12 0 0 0 -0.10742,-0.291019 12,12 0 0 0 -0.0879,-0.228518 12,12 0 0 0 -0.16406,-0.38867 12,12 0 0 0 -0.0391,-0.08984 12,12 0 0 0 -0.01,-0.02148 12,12 0 0 0 -0.1836,-0.380857 12,12 0 0 0 -0.0625,-0.128911 12,12 0 0 0 -0.0234,-0.04492 12,12 0 0 0 -0.25781,-0.472659 12,12 0 0 0 -9.82227,-5.986329 z" />
    <g
       id="g3694"
       inkscape:transform-center-y="-35.643653"
       transform="rotate(-30,63.999999,95.961591)"
       inkscape:transform-center-x="21.38272">
      <rect
         style="fill:#4a5462;fill-opacity:1;stroke:none;stroke-width:32;stroke-linecap:round;stroke-linejoin:round;paint-order:markers stroke fill"
         id="rect1964"
         width="12"
         height="64"
         x="58"
         y="31.999998" />
      <circle
         style="fill:#20d6c7;fill-opacity:1;stroke:none;stroke-width:8;stroke-linecap:round;stroke-linejoin:round;paint-order:markers stroke fill"
         id="path3465-6"
         cx="64"
         cy="24"
         r="12" />
      <rect
         style="fill:#434b58;fill-opacity:1;stroke:none;stroke-width:32;stroke-linecap:round;stroke-linejoin:round;paint-order:markers stroke fill"
         id="rect3688"
         width="4"
         height="64"
         x="66"
         y="31.999998" />
      <path
         id="circle6408-2"
         style="fill:#249fde;fill-opacity:1;stroke-width:4.00002;stroke-linecap:round;stroke-linejoin:round;paint-order:markers fill stroke"
         d="m 52,24 a 12,12 0 0 0 11.999999,12 12,12 0 0 0 12,-12 12,8 0 0 1 -12,8 A 12,8 0 0 1 52,24 Z" />
    </g>
    <path
       id="rect474"
       style="fill:#8b93af;stroke:none;stroke-width:32;stroke-linecap:round;stroke-linejoin:round;paint-order:markers stroke fill;fill-opacity:1"
       d="M 32 80 C 23.136009 80 16 87.136009 16 96 L 16 128 L 112 128 L 112 96 C 112 87.136009 104.86399 80 96 80 L 32 80 z " />
    <rect
       style="fill:#6d758d;fill-opacity:1;stroke:none;stroke-width:32;stroke-linecap:round;stroke-linejoin:round;paint-order:markers stroke fill"
       id="rect1085"
       width="96"
       height="8"
       x="16"
       y="120" />
    <path
       id="path2627"
       style="fill:#6d758d;fill-opacity:1;stroke-width:3.99999;stroke-linecap:round;stroke-linejoin:round;paint-order:markers fill stroke"
       d="m 112,120 0,-12 c 0,6.64798 -5.35201,12 -12,12 z m -84,0 c -6.647985,0 -12,-5.35202 -12,-12 v 12 z"
       sodipodi:nodetypes="cccccccc" />
  </g>
</svg>
